<?xml version="1.0" encoding="UTF-8" standalone="no"?>
<!-- Created with Inkscape (http://www.inkscape.org/) -->

<svg
   xmlns:dc="http://purl.org/dc/elements/1.1/"
   xmlns:cc="http://creativecommons.org/ns#"
   xmlns:rdf="http://www.w3.org/1999/02/22-rdf-syntax-ns#"
   xmlns:svg="http://www.w3.org/2000/svg"
   xmlns="http://www.w3.org/2000/svg"
   xmlns:xlink="http://www.w3.org/1999/xlink"
   xmlns:sodipodi="http://sodipodi.sourceforge.net/DTD/sodipodi-0.dtd"
   xmlns:inkscape="http://www.inkscape.org/namespaces/inkscape"
   width="31mm"
   height="30mm"
   viewBox="0 0 109.84252 106.29921"
   id="svg2"
   version="1.1"
   inkscape:version="0.91 r13725"
   sodipodi:docname="Pflaume-coloured.svg">
  <title
     id="title4136">plum - coloured</title>
  <defs
     id="defs4">
    <linearGradient
       id="linearGradient6121"
       inkscape:collect="always">
      <stop
         id="stop6123"
         offset="0"
         style="stop-color:#8478bf;stop-opacity:1" />
      <stop
         style="stop-color:#4e3ba7;stop-opacity:1"
         offset="0.07366174"
         id="stop6125" />
      <stop
         id="stop6127"
         offset="0.50851828"
         style="stop-color:#1f00a4;stop-opacity:1;" />
      <stop
         style="stop-color:#1f00a4;stop-opacity:1;"
         offset="0.68420041"
         id="stop6129" />
      <stop
         id="stop6131"
         offset="1"
         style="stop-color:#1f00a4;stop-opacity:1" />
    </linearGradient>
    <linearGradient
       inkscape:collect="always"
       id="linearGradient6099">
      <stop
         style="stop-color:#8478bf;stop-opacity:1"
         offset="0"
         id="stop6101" />
      <stop
         id="stop6107"
         offset="0.14594515"
         style="stop-color:#4e3ba7;stop-opacity:1" />
      <stop
         style="stop-color:#1f00a4;stop-opacity:1;"
         offset="0.50851828"
         id="stop6109" />
      <stop
         id="stop6111"
         offset="0.68420041"
         style="stop-color:#1f00a4;stop-opacity:1;" />
      <stop
         style="stop-color:#1f00a4;stop-opacity:1"
         offset="1"
         id="stop6103" />
    </linearGradient>
    <pattern
       inkscape:collect="always"
       xlink:href="#Wavy"
       id="pattern5972"
       patternTransform="matrix(0.20760087,-0.09769362,0.19044778,0.40470527,0.5878893,0.49764894)" />
    <pattern
       inkscape:stockid="Wavy"
       id="Wavy"
       height="5.1805778"
       width="30.066020"
       patternUnits="userSpaceOnUse"
       inkscape:collect="always">
      <path
         id="path5623"
         d="M 7.597,0.061 C 5.079,-0.187 2.656,0.302 -0.01,1.788 L -0.01,3.061 C 2.773,1.431 5.173,1.052 7.472,1.280 C 9.770,1.508 11.969,2.361 14.253,3.218 C 18.820,4.931 23.804,6.676 30.066,3.061 L 30.062,1.788 C 23.622,5.497 19.246,3.770 14.691,2.061 C 12.413,1.207 10.115,0.311 7.597,0.061 z "
         style="fill:black;stroke:none;" />
    </pattern>
    <pattern
       inkscape:collect="always"
       xlink:href="#Polkadots-large"
       id="pattern5863"
       patternTransform="matrix(1.331633,0,0,1.4097264,0.20161688,-0.90432382)" />
    <pattern
       inkscape:collect="always"
       xlink:href="#Polkadots-large"
       id="pattern5756"
       patternTransform="matrix(1.2275085,0,0,1.2795707,0.33243195,0.06056062)" />
    <pattern
       inkscape:stockid="Polka dots, large"
       id="Polkadots-large"
       patternTransform="translate(0,0) scale(10,10)"
       height="10"
       width="10"
       patternUnits="userSpaceOnUse"
       inkscape:collect="always">
      <circle
         id="circle5445"
         r="0.45"
         cy="0.810"
         cx="2.567"
         style="fill:black;stroke:none" />
      <circle
         id="circle5447"
         r="0.45"
         cy="2.33"
         cx="3.048"
         style="fill:black;stroke:none" />
      <circle
         id="circle5449"
         r="0.45"
         cy="2.415"
         cx="4.418"
         style="fill:black;stroke:none" />
      <circle
         id="circle5451"
         r="0.45"
         cy="3.029"
         cx="1.844"
         style="fill:black;stroke:none" />
      <circle
         id="circle5453"
         r="0.45"
         cy="1.363"
         cx="6.08"
         style="fill:black;stroke:none" />
      <circle
         id="circle5455"
         r="0.45"
         cy="4.413"
         cx="5.819"
         style="fill:black;stroke:none" />
      <circle
         id="circle5457"
         r="0.45"
         cy="4.048"
         cx="4.305"
         style="fill:black;stroke:none" />
      <circle
         id="circle5459"
         r="0.45"
         cy="3.045"
         cx="5.541"
         style="fill:black;stroke:none" />
      <circle
         id="circle5461"
         r="0.45"
         cy="5.527"
         cx="4.785"
         style="fill:black;stroke:none" />
      <circle
         id="circle5463"
         r="0.45"
         cy="5.184"
         cx="2.667"
         style="fill:black;stroke:none" />
      <circle
         id="circle5465"
         r="0.45"
         cy="1.448"
         cx="7.965"
         style="fill:black;stroke:none" />
      <circle
         id="circle5467"
         r="0.45"
         cy="5.049"
         cx="7.047"
         style="fill:black;stroke:none" />
      <circle
         id="circle5469"
         r="0.45"
         cy="0.895"
         cx="4.340"
         style="fill:black;stroke:none" />
      <circle
         id="circle5471"
         r="0.45"
         cy="0.340"
         cx="7.125"
         style="fill:black;stroke:none" />
      <circle
         id="circle5473"
         r="0.45"
         cy="1.049"
         cx="9.553"
         style="fill:black;stroke:none" />
      <circle
         id="circle5475"
         r="0.45"
         cy="2.689"
         cx="7.006"
         style="fill:black;stroke:none" />
      <circle
         id="circle5477"
         r="0.45"
         cy="2.689"
         cx="8.909"
         style="fill:black;stroke:none" />
      <circle
         id="circle5479"
         r="0.45"
         cy="4.407"
         cx="9.315"
         style="fill:black;stroke:none" />
      <circle
         id="circle5481"
         r="0.45"
         cy="3.870"
         cx="7.820"
         style="fill:black;stroke:none" />
      <circle
         id="circle5483"
         r="0.45"
         cy="5.948"
         cx="8.270"
         style="fill:black;stroke:none" />
      <circle
         id="circle5485"
         r="0.45"
         cy="7.428"
         cx="7.973"
         style="fill:black;stroke:none" />
      <circle
         id="circle5487"
         r="0.45"
         cy="8.072"
         cx="9.342"
         style="fill:black;stroke:none" />
      <circle
         id="circle5489"
         r="0.45"
         cy="9.315"
         cx="8.206"
         style="fill:black;stroke:none" />
      <circle
         id="circle5491"
         r="0.45"
         cy="9.475"
         cx="9.682"
         style="fill:black;stroke:none" />
      <circle
         id="circle5493"
         r="0.45"
         cy="6.186"
         cx="9.688"
         style="fill:black;stroke:none" />
      <circle
         id="circle5495"
         r="0.45"
         cy="6.296"
         cx="3.379"
         style="fill:black;stroke:none" />
      <circle
         id="circle5497"
         r="0.45"
         cy="8.204"
         cx="2.871"
         style="fill:black;stroke:none" />
      <circle
         id="circle5499"
         r="0.45"
         cy="8.719"
         cx="4.59"
         style="fill:black;stroke:none" />
      <circle
         id="circle5501"
         r="0.45"
         cy="9.671"
         cx="3.181"
         style="fill:black;stroke:none" />
      <circle
         id="circle5503"
         r="0.45"
         cy="7.315"
         cx="5.734"
         style="fill:black;stroke:none" />
      <circle
         id="circle5505"
         r="0.45"
         cy="6.513"
         cx="6.707"
         style="fill:black;stroke:none" />
      <circle
         id="circle5507"
         r="0.45"
         cy="9.670"
         cx="5.730"
         style="fill:black;stroke:none" />
      <circle
         id="circle5509"
         r="0.45"
         cy="8.373"
         cx="6.535"
         style="fill:black;stroke:none" />
      <circle
         id="circle5511"
         r="0.45"
         cy="7.154"
         cx="4.37"
         style="fill:black;stroke:none" />
      <circle
         id="circle5513"
         r="0.45"
         cy="7.25"
         cx="0.622"
         style="fill:black;stroke:none" />
      <circle
         id="circle5515"
         r="0.45"
         cy="5.679"
         cx="0.831"
         style="fill:black;stroke:none" />
      <circle
         id="circle5517"
         r="0.45"
         cy="8.519"
         cx="1.257"
         style="fill:black;stroke:none" />
      <circle
         id="circle5519"
         r="0.45"
         cy="6.877"
         cx="1.989"
         style="fill:black;stroke:none" />
      <circle
         id="circle5521"
         r="0.45"
         cy="3.181"
         cx="0.374"
         style="fill:black;stroke:none" />
      <circle
         id="circle5523"
         r="0.45"
         cy="1.664"
         cx="1.166"
         style="fill:black;stroke:none" />
      <circle
         id="circle5525"
         r="0.45"
         cy="0.093"
         cx="1.151"
         style="fill:black;stroke:none" />
      <circle
         id="circle5527"
         r="0.45"
         cy="10.093"
         cx="1.151"
         style="fill:black;stroke:none" />
      <circle
         id="circle5529"
         r="0.45"
         cy="4.451"
         cx="1.302"
         style="fill:black;stroke:none" />
      <circle
         id="circle5531"
         r="0.45"
         cy="3.763"
         cx="3.047"
         style="fill:black;stroke:none" />
    </pattern>
    <radialGradient
       inkscape:collect="always"
       xlink:href="#linearGradient6099"
       id="radialGradient6105"
       cx="54.478439"
       cy="74.05941"
       fx="54.478439"
       fy="74.05941"
       r="16.657114"
       gradientTransform="matrix(1.3937686,0.28904407,-0.59837417,2.8853564,22.863339,-157.6534)"
       gradientUnits="userSpaceOnUse" />
    <radialGradient
       inkscape:collect="always"
       xlink:href="#linearGradient6121"
       id="radialGradient6119"
       cx="21.188314"
       cy="72.399513"
       fx="21.188314"
       fy="72.399513"
       r="18.5366"
       gradientTransform="matrix(1.444826,0.96020859,-1.9601832,2.9494881,133.27345,-167.73721)"
       gradientUnits="userSpaceOnUse" />
  </defs>
  <sodipodi:namedview
     id="base"
     pagecolor="#ffffff"
     bordercolor="#666666"
     borderopacity="1.0"
     inkscape:pageopacity="0.0"
     inkscape:pageshadow="2"
     inkscape:zoom="16"
     inkscape:cx="50.572656"
     inkscape:cy="37.176177"
     inkscape:document-units="mm"
     inkscape:current-layer="layer2"
     showgrid="false"
     borderlayer="true"
     inkscape:window-width="2560"
     inkscape:window-height="1321"
     inkscape:window-x="0"
     inkscape:window-y="0"
     inkscape:window-maximized="1"
     inkscape:snap-global="false"
     fit-margin-top="1"
     fit-margin-right="1"
     fit-margin-bottom="1"
     fit-margin-left="1" />
  <metadata
     id="metadata7">
    <rdf:RDF>
      <cc:Work
         rdf:about="">
        <dc:format>image/svg+xml</dc:format>
        <dc:type
           rdf:resource="http://purl.org/dc/dcmitype/StillImage" />
        <dc:title>plum - coloured</dc:title>
        <dc:subject>
          <rdf:Bag>
            <rdf:li>plum</rdf:li>
            <rdf:li>fruit</rdf:li>
            <rdf:li>school</rdf:li>
            <rdf:li>teaching</rdf:li>
            <rdf:li>education</rdf:li>
            <rdf:li>Pflaume</rdf:li>
            <rdf:li>Frucht</rdf:li>
            <rdf:li>Schule</rdf:li>
            <rdf:li>Unterricht</rdf:li>
            <rdf:li>Erziehung</rdf:li>
            <rdf:li>line art</rdf:li>
            <rdf:li>outline</rdf:li>
            <rdf:li></rdf:li>
          </rdf:Bag>
        </dc:subject>
        <dc:date>2016-03-29</dc:date>
        <dc:creator>
          <cc:Agent>
            <dc:title>Frank Tremmel</dc:title>
          </cc:Agent>
        </dc:creator>
        <dc:description>coloured line art plum</dc:description>
        <cc:license
           rdf:resource="http://creativecommons.org/publicdomain/zero/1.0/" />
      </cc:Work>
      <cc:License
         rdf:about="http://creativecommons.org/publicdomain/zero/1.0/">
        <cc:permits
           rdf:resource="http://creativecommons.org/ns#Reproduction" />
        <cc:permits
           rdf:resource="http://creativecommons.org/ns#Distribution" />
        <cc:permits
           rdf:resource="http://creativecommons.org/ns#DerivativeWorks" />
      </cc:License>
    </rdf:RDF>
  </metadata>
  <g
     inkscape:groupmode="layer"
     id="layer2"
     inkscape:label="Ebene 2"
     transform="translate(0.937252,-2.4323991)">
    <path
       style="fill:#542d0b;fill-rule:evenodd;stroke:#784421;stroke-width:0.29055119;stroke-linecap:butt;stroke-linejoin:miter;stroke-miterlimit:4;stroke-dasharray:none;stroke-opacity:1;fill-opacity:1"
       d="m 34.428361,43.020584 c -2.344436,1.072001 -2.730558,2.423762 -2.668191,3.839592 5.292179,2.61838 9.668258,4.078875 18.612259,5.726849 l 5.010993,2.798347 c 3.985209,0.279663 9.101384,-0.14995 11.648932,2.603113 l 6.442705,3.514203 5.596693,0.91109 8.915663,4.425292 3.514203,0.130156 2.212646,-2.603113 c 0.100451,-1.465466 -0.190773,-2.763071 -1.301556,-3.709437 l -3.969748,0.06508 -7.158561,-2.99358 C 77.161225,54.48809 73.579803,53.95676 69.960856,53.237806 66.745996,53.109837 65.310781,50.979767 63.387995,49.398214 l 0.130156,-4.750682 C 62.653401,41.733828 60.851509,41.00679 58.962703,40.482551 L 49.331184,28.833619 c 0,0 -4.295137,-4.815761 -4.295137,-5.206228 0,-0.390467 -1.887257,-5.271304 -1.887257,-5.271304 -1.453045,-0.276971 -2.94216,-1.058915 -4.230059,0.976167 l -0.06508,1.822179 7.744262,10.542609 5.40146,7.223639 2.668191,5.857005 c -0.645078,3.009423 -1.463728,2.894527 -2.277724,2.863424 -3.666496,0.210881 -7.005449,-0.451686 -10.152142,-1.626945 z"
       id="path4253"
       inkscape:connector-curvature="0"
       sodipodi:nodetypes="ccccccccccccccccccsccccccccc" />
    <path
       style="fill:url(#pattern5972);fill-opacity:1;fill-rule:evenodd;stroke:#784421;stroke-width:0.29055119;stroke-linecap:butt;stroke-linejoin:miter;stroke-miterlimit:4;stroke-dasharray:none;stroke-opacity:1;opacity:0.299"
       d="m 34.487363,43.04691 c -2.34443,1.072001 -2.73055,2.423762 -2.66819,3.839592 5.29218,2.61838 9.66826,4.078875 18.61226,5.726849 l 5.01099,2.798347 c 3.98521,0.279663 9.10139,-0.14995 11.64894,2.603113 l 6.4427,3.514204 5.59669,0.91109 8.91567,4.42529 3.5142,0.13016 2.21265,-2.60312 c 0.10045,-1.46546 -0.19078,-2.76307 -1.30156,-3.70943 l -3.96975,0.0651 -7.15856,-2.993583 c -4.12317,-3.240086 -7.70459,-3.771416 -11.32354,-4.49037 -3.21486,-0.127969 -4.65008,-2.258039 -6.57286,-3.839592 l 0.13015,-4.750682 c -0.86475,-2.913704 -2.66664,-3.640742 -4.55544,-4.164981 l -9.63152,-11.648952 c 0,0 -4.29514,-4.815761 -4.29514,-5.206228 0,-0.390467 -1.88726,-5.271304 -1.88726,-5.271304 -1.45304,-0.276971 -2.94216,-1.058915 -4.23006,0.976167 l -0.0651,1.822179 7.74427,10.542609 5.40146,7.223639 2.66819,5.857005 c -0.64508,3.009423 -1.46373,2.894527 -2.27773,2.863424 -3.66649,0.210881 -7.00545,-0.451686 -10.15214,-1.626945 z"
       id="path4253-9"
       inkscape:connector-curvature="0"
       sodipodi:nodetypes="ccccccccccccccccccsccccccccc" />
    <path
       style="fill:#66592e;fill-rule:evenodd;stroke:#ffcc00;stroke-width:0.29055119;stroke-linecap:butt;stroke-linejoin:miter;stroke-miterlimit:4;stroke-dasharray:none;stroke-opacity:1;fill-opacity:1"
       d="m 92.022241,60.526521 c -1.630289,-0.383082 -3.523836,1.402834 -3.774515,3.058658 -0.225363,1.488605 0.257245,3.708583 2.40788,3.579281 1.470208,-0.08839 2.943019,-1.60645 3.188814,-3.058659 0.223423,-1.32003 -0.518872,-3.273031 -1.822179,-3.57928 z"
       id="path5974"
       inkscape:connector-curvature="0"
       sodipodi:nodetypes="sssss" />
    <path
       style="color:#000000;font-style:normal;font-variant:normal;font-weight:normal;font-stretch:normal;font-size:medium;line-height:normal;font-family:sans-serif;text-indent:0;text-align:start;text-decoration:none;text-decoration-line:none;text-decoration-style:solid;text-decoration-color:#000000;letter-spacing:normal;word-spacing:normal;text-transform:none;direction:ltr;block-progression:tb;writing-mode:lr-tb;baseline-shift:baseline;text-anchor:start;white-space:normal;clip-rule:nonzero;display:inline;overflow:visible;visibility:visible;opacity:1;isolation:auto;mix-blend-mode:normal;color-interpolation:sRGB;color-interpolation-filters:linearRGB;solid-color:#000000;solid-opacity:1;fill:#4f1700;fill-opacity:1;fill-rule:evenodd;stroke:none;stroke-width:1.77165353;stroke-linecap:butt;stroke-linejoin:miter;stroke-miterlimit:4;stroke-dasharray:none;stroke-dashoffset:0;stroke-opacity:1;color-rendering:auto;image-rendering:auto;shape-rendering:auto;text-rendering:auto;enable-background:accumulate"
       d="m 40.304642,17.233825 c -1.885475,0.29481 -3.124982,3.69017 -1.263312,5.110704 4.221576,5.272921 8.184916,10.74998 12.072266,16.267578 0.93507,2.173965 2.334491,4.197179 2.888671,6.496093 -1.38781,3.284771 -6.087741,0.832321 -8.814453,0.839844 -3.737938,-0.700286 -7.428259,-1.867302 -10.707031,-3.826172 -1.864936,0.972376 -3.704881,2.715185 -3.408203,5.015625 5.943184,3.273666 12.698811,4.419955 19.210937,6.017578 2.955504,2.995095 7.347445,3.219576 11.292969,3.244141 3.259577,0.179878 5.950662,2.230099 8.619141,3.894531 1.556403,1.482508 4.287752,2.602351 6.740234,2.335938 3.991372,0.86294 7.253145,3.866523 9.641398,4.495898 2.388253,0.629375 3.077771,0.741828 3.796107,0.767772 3.084496,-0.116899 4.849698,-3.881827 3.884766,-6.550782 -1.397278,-3.276349 -4.647416,-0.495009 -6.925781,-2.128906 -2.722645,-0.787791 -5.274694,-2.078909 -7.503907,-3.814453 -3.571999,-2.149077 -7.732968,-3.164947 -11.773437,-3.648437 -1.841773,-0.656903 -4.84803,-1.931933 -3.890625,-4.330079 0.786833,-2.672404 -0.210259,-6.275528 -2.88086,-7.43992 -3.06253,-0.315822 -3.770012,-3.530228 -6.023437,-4.751486 -2.42316,-3.173808 -4.468167,-6.670764 -7.451172,-9.390625 -2.327705,-2.010372 -2.326265,-5.366508 -4.019531,-7.74414 -0.639328,-0.712103 -1.599264,-1.155513 -3.48474,-0.860702 z m 1.89504,2.344205 c 1.760336,0.700731 1.359406,4.204375 3.187351,6.157127 2.057014,2.44877 4.49621,4.611287 6.154297,7.390626 1.27873,2.167817 2.991887,4.018176 4.884766,5.632812 0.640515,2.381904 2.326785,3.149291 4.558593,3.521484 2.697663,1.666141 1.41566,4.263949 1.712733,6.720316 1.624964,2.750337 4.522068,5.184393 7.611486,5.340698 4.083087,0.582028 7.592382,2.145508 10.881642,4.589922 2.090185,1.230647 4.991773,2.136912 7.281013,2.900313 -0.715915,0.820281 -0.939106,1.214118 -1.056719,2.125861 -0.05576,0.432222 0.286999,1.443532 0.354689,1.855232 -1.152028,-0.528273 -3.251167,-1.338295 -4.298433,-1.786406 -2.696239,-1.532701 -5.379015,-3.225214 -8.601642,-2.926406 -2.567867,-0.555721 -4.622177,-2.474241 -6.95367,-3.581486 -2.729186,-1.860658 -5.630778,-2.646855 -8.884924,-2.516874 -2.864677,0.02689 -5.979499,-0.696544 -7.946562,-2.887423 -6.097214,-1.554038 -13.002073,-2.721359 -18.677497,-5.569608 0.525122,-1.485316 2.009512,-2.188357 3.070885,-1.929885 1.690061,0.411575 3.792611,2.106047 5.456221,2.128637 3.74392,0.96588 7.622493,1.843901 11.505859,1.730469 2.955267,-0.06369 3.508471,-3.410088 1.897426,-5.636799 -1.287882,-2.555501 -2.010226,-4.863009 -3.875783,-7.072423 -3.461186,-4.884831 -7.285225,-9.889634 -11.025936,-14.564374 -0.761725,-0.620034 1.003869,-2.322544 2.764205,-1.621813 z m 49.089695,41.704 c 1.658928,-0.08337 2.053906,3.355623 0.1875,4.396484 -0.786272,0.374053 -1.581716,0.414495 -2.375,0.291016 -0.315578,-0.485685 -0.466785,-1.084887 -0.384766,-1.720704 0.684063,-1.537274 1.101294,-2.483343 2.572266,-2.966796 z"
       id="path4201"
       inkscape:connector-curvature="0"
       sodipodi:nodetypes="ccccccccccccccccccccccccccccccccscccccccsccccccccccc" />
    <path
       style="fill:url(#radialGradient6119);fill-rule:evenodd;stroke:#ff0000;stroke-width:0.29055119;stroke-linecap:butt;stroke-linejoin:miter;stroke-miterlimit:4;stroke-dasharray:none;stroke-opacity:1;fill-opacity:1"
       d="m 39.569509,56.426618 c -9.057869,-3.351166 -21.369557,5.752438 -25.705743,14.3822 -4.3872383,8.731366 -3.049795,22.90521 4.295137,29.350092 4.420252,3.8786 11.192675,2.08235 16.399613,-0.650768 6.488857,-3.405997 10.765906,-10.694287 12.429866,-17.831326 2.601271,-11.157335 1.067174,-22.110591 -7.418873,-25.250198 z"
       id="path4245"
       inkscape:connector-curvature="0"
       sodipodi:nodetypes="ssssss" />
    <path
       style="fill:url(#pattern5756);fill-opacity:1;fill-rule:evenodd;stroke:#ff0000;stroke-width:0.29055119;stroke-linecap:butt;stroke-linejoin:miter;stroke-miterlimit:4;stroke-dasharray:none;stroke-opacity:1;opacity:0.293"
       d="M 39.828686,55.87888 C 30.770817,52.52771 18.459129,61.63131 14.122943,70.26108 9.735705,78.99244 11.073148,93.16629 18.41808,99.611166 22.838332,103.48976 29.610755,101.69351 34.817693,98.9604 41.30655,95.5544 45.583599,88.26611 47.247559,81.12907 49.84883,69.97174 48.314733,59.01848 39.828686,55.87888 Z"
       id="path4245-7"
       inkscape:connector-curvature="0"
       sodipodi:nodetypes="ssssss" />
    <path
       style="color:#000000;font-style:normal;font-variant:normal;font-weight:normal;font-stretch:normal;font-size:medium;line-height:normal;font-family:sans-serif;text-indent:0;text-align:start;text-decoration:none;text-decoration-line:none;text-decoration-style:solid;text-decoration-color:#000000;letter-spacing:normal;word-spacing:normal;text-transform:none;direction:ltr;block-progression:tb;writing-mode:lr-tb;baseline-shift:baseline;text-anchor:start;white-space:normal;clip-rule:nonzero;display:inline;overflow:visible;visibility:visible;opacity:1;isolation:auto;mix-blend-mode:normal;color-interpolation:sRGB;color-interpolation-filters:linearRGB;solid-color:#000000;solid-opacity:1;fill:#15006a;fill-opacity:1;fill-rule:evenodd;stroke:none;stroke-width:2.83464575;stroke-linecap:butt;stroke-linejoin:miter;stroke-miterlimit:4;stroke-dasharray:none;stroke-dashoffset:0;stroke-opacity:1;color-rendering:auto;image-rendering:auto;shape-rendering:auto;text-rendering:auto;enable-background:accumulate"
       d="m 34.021799,54.838354 c -1.929902,0.09706 -3.969118,0.392023 -5.596953,1.057344 -6.796583,2.77787 -13.372755,8.858682 -15.893282,15.796488 -3.1491487,8.668104 -3.1709382,20.475045 2.978516,27.814456 1.692334,2.019808 4.375877,3.104628 7.150391,3.634758 2.774513,0.53014 5.017267,-0.16296 7.347268,-0.84023 7.698138,-2.23766 12.689066,-6.997279 15.990938,-14.175936 1.501226,-3.26384 2.698239,-7.529913 3.120391,-12.116642 0.422151,-4.586729 0.220764,-9.065796 -1.134766,-12.547578 C 46.441318,59.497743 43.19543,56.817029 39.357191,55.361246 37.643794,54.711382 35.9517,54.741293 34.021799,54.838354 Z m 0.140625,2.111644 c 1.627887,-0.07966 3.241623,0.08299 4.449219,0.541016 3.122485,1.184309 6.222979,3.895041 7.380859,6.86914 1.069295,2.746565 1.351986,7.076216 0.955078,11.388672 -0.396908,4.312457 -1.452419,8.644772 -2.744141,11.453125 -3.06177,6.656647 -7.410683,11.014343 -14.335937,13.027339 -1.722258,0.50062 -4.305787,0.57942 -6.673828,0.12696 -2.368042,-0.452468 -4.491888,-1.455082 -5.509766,-2.669924 -5.147167,-6.143172 -5.345386,-17.163099 -2.488281,-25.027343 2.151593,-5.92231 8.562745,-12.392306 14.43164,-14.791016 1.263988,-0.516611 2.907269,-0.838308 4.535157,-0.917969 z"
       id="path4169"
       inkscape:connector-curvature="0"
       sodipodi:nodetypes="ssssssssssssssssssssss" />
    <path
       style="color:#000000;font-style:normal;font-variant:normal;font-weight:normal;font-stretch:normal;font-size:medium;line-height:normal;font-family:sans-serif;text-indent:0;text-align:start;text-decoration:none;text-decoration-line:none;text-decoration-style:solid;text-decoration-color:#000000;letter-spacing:normal;word-spacing:normal;text-transform:none;direction:ltr;block-progression:tb;writing-mode:lr-tb;baseline-shift:baseline;text-anchor:start;white-space:normal;clip-rule:nonzero;display:inline;overflow:visible;visibility:visible;opacity:1;isolation:auto;mix-blend-mode:normal;color-interpolation:sRGB;color-interpolation-filters:linearRGB;solid-color:#000000;solid-opacity:1;fill:#120058;fill-opacity:1;fill-rule:evenodd;stroke:none;stroke-width:1.77165353;stroke-linecap:butt;stroke-linejoin:miter;stroke-miterlimit:4;stroke-dasharray:none;stroke-dashoffset:0;stroke-opacity:1;color-rendering:auto;image-rendering:auto;shape-rendering:auto;text-rendering:auto;enable-background:accumulate"
       d="m 42.400943,67.127733 c -0.274762,-1.301009 -1.374482,-0.869803 -1.174066,0.205078 0.676814,5.796135 0.641826,11.152352 -1.393164,16.615534 -1.60232,4.301627 -4.444593,8.66957 -9.155664,13.370794 -0.50701,0.625757 -0.215815,1.7598 0.73133,0.993595 4.883106,-4.872899 8.37391,-9.260704 10.059454,-13.850419 2.115523,-5.760543 1.621693,-11.429086 0.93211,-17.334582 z"
       id="path4171"
       inkscape:connector-curvature="0"
       sodipodi:nodetypes="ccsccsc" />
    <path
       style="color:#000000;font-style:normal;font-variant:normal;font-weight:normal;font-stretch:normal;font-size:medium;line-height:normal;font-family:sans-serif;text-indent:0;text-align:start;text-decoration:none;text-decoration-line:none;text-decoration-style:solid;text-decoration-color:#000000;letter-spacing:normal;word-spacing:normal;text-transform:none;direction:ltr;block-progression:tb;writing-mode:lr-tb;baseline-shift:baseline;text-anchor:start;white-space:normal;clip-rule:nonzero;display:inline;overflow:visible;visibility:visible;opacity:1;isolation:auto;mix-blend-mode:normal;color-interpolation:sRGB;color-interpolation-filters:linearRGB;solid-color:#000000;solid-opacity:1;fill:#432bab;fill-opacity:1;fill-rule:evenodd;stroke:none;stroke-width:1px;stroke-linecap:butt;stroke-linejoin:miter;stroke-miterlimit:4;stroke-dasharray:none;stroke-dashoffset:0;stroke-opacity:1;color-rendering:auto;image-rendering:auto;shape-rendering:auto;text-rendering:auto;enable-background:accumulate"
       d="m 35.565547,57.499533 c -1.13916,0.43091 -1.562709,2.013248 -1.614119,3.175624 -0.07685,1.737497 1.019858,3.429865 2.458351,4.408622 1.525729,1.038111 3.582233,1.475835 5.305605,0.694166 0.757914,-0.343766 1.462668,-0.920332 1.717335,-1.750249 0.358435,-1.16808 0.412345,-2.323503 -0.06302,-3.470881 -0.09708,-0.234315 -0.189533,-0.609237 -0.622972,-0.827083 -0.868402,-0.436459 -0.971772,0.09519 -0.88077,0.377501 0.186664,0.579086 0.164082,1.218193 0.142628,1.789037 -0.02523,0.671194 -0.241064,1.201653 -0.770136,1.64449 -0.691948,0.579163 -1.724486,0.735978 -3.000837,0.213119 -1.241911,-0.508751 -2.315135,-1.236559 -2.602491,-2.584893 -0.230724,-1.082609 -0.04208,-1.793145 0.734332,-2.599496 0.207294,-0.215287 0.550965,-0.645642 1.000318,-0.702115 0.900187,-0.11314 0.657274,-1.298952 -1.804222,-0.367842 z"
       id="path4185"
       inkscape:connector-curvature="0"
       sodipodi:nodetypes="sssssssssssssss" />
    <path
       style="fill:#137a52;fill-rule:evenodd;stroke:#445500;stroke-width:0.29055119;stroke-linecap:butt;stroke-linejoin:miter;stroke-miterlimit:4;stroke-dasharray:none;stroke-opacity:1;fill-opacity:1"
       d="m 54.081866,45.818931 c 0,0 -4.808238,0.248986 -7.093484,1.626946 -3.863941,2.329883 -9.22442,10.786868 -8.655351,11.128309 0,0 -1.724922,0.716791 -1.82218,1.49679 -0.126692,1.01606 1.025547,1.958422 2.017413,2.212647 0.949562,0.243381 1.913969,-0.170914 2.472958,-0.976168 0.322574,-0.464686 0.130155,-1.692024 0.130155,-1.692024 0,0 2.266015,-5.178761 4.295137,-7.028406 1.892815,-1.725395 4.415427,-2.755298 6.89825,-3.384047 1.052281,-0.266479 3.253892,-0.130155 3.253892,-0.130155 3.210033,-1.360332 -0.210535,-3.149902 -1.49679,-3.253892 z"
       id="path4247"
       inkscape:connector-curvature="0"
       sodipodi:nodetypes="cscssscsscc" />
    <path
       style="fill:#006c20;fill-rule:evenodd;stroke:#ffcc00;stroke-width:0.29055119;stroke-linecap:butt;stroke-linejoin:miter;stroke-miterlimit:4;stroke-dasharray:none;stroke-opacity:1;fill-opacity:1"
       d="m 61.305505,21.5449 0.325389,-4.360214 3.318969,-4.81576 5.010993,-3.188813 4.880837,-0.6507783 3.709437,-0.9761674 c 1.149708,1.0502944 2.299417,0.5295634 3.449125,0.6507783 l 2.733269,1.2364788 c 1.887585,-0.8399847 3.237701,0.290755 4.620526,1.3015566 1.713716,0.477019 3.427432,1.3239 5.141148,2.668191 l 4.750682,4.360214 c 1.68364,2.105166 1.25248,3.364415 1.30156,4.81576 0.96382,0.752983 1.05129,2.601405 1.36664,4.164981 -0.21639,1.314465 0.19911,2.502552 0.84601,3.644358 l -0.65078,0.976168 c 1.04014,0.6031 2.24543,0.765812 2.79835,2.668191 l -7.809349,2.99358 -3.644358,-0.846012 -3.969748,-0.650778 -7.093483,-2.863425 -1.431713,-1.692023 C 78.6379,30.177796 76.316791,29.657382 73.995682,27.532061 L 69.440234,23.822624 C 66.685272,22.409458 64.060466,21.744362 61.305505,21.5449 Z"
       id="path4255"
       inkscape:connector-curvature="0"
       sodipodi:nodetypes="cccccccccccccccccccccccc" />
    <path
       style="fill:#2eb44d;fill-rule:evenodd;stroke:#ffcc00;stroke-width:0.29055119;stroke-linecap:butt;stroke-linejoin:miter;stroke-miterlimit:4;stroke-dasharray:none;stroke-opacity:1;fill-opacity:1"
       d="m 49.331184,31.436731 1.822179,-1.626946 0.455545,-5.141149 c 0.515098,-0.987082 0.279847,-2.474395 0.325389,-3.774514 l -1.106323,-1.561868 0.390467,-6.117316 2.277724,-3.4491246 2.538035,-0.06508 c 0,0 5.076071,3.0586576 5.466538,3.1237356 0.390467,0.06508 2.472958,0.780934 2.472958,0.780934 -0.319204,1.515375 -1.048509,2.75735 -2.40788,3.579281 0.949371,2.686056 -0.484753,3.58449 -0.780934,5.336382 l -5.141149,2.538035 -1.106323,2.212646 c -0.213581,2.036335 -0.447741,4.045231 -1.171401,5.40146 -0.542315,1.183443 -1.08463,1.327038 -1.626945,1.496791 -2.828339,-0.125377 -2.627192,-1.627351 -2.40788,-2.733267 z"
       id="path4257"
       inkscape:connector-curvature="0"
       sodipodi:nodetypes="ccccccccscccccccc" />
    <path
       style="color:#000000;font-style:normal;font-variant:normal;font-weight:normal;font-stretch:normal;font-size:medium;line-height:normal;font-family:sans-serif;text-indent:0;text-align:start;text-decoration:none;text-decoration-line:none;text-decoration-style:solid;text-decoration-color:#000000;letter-spacing:normal;word-spacing:normal;text-transform:none;direction:ltr;block-progression:tb;writing-mode:lr-tb;baseline-shift:baseline;text-anchor:start;white-space:normal;clip-rule:nonzero;display:inline;overflow:visible;visibility:visible;opacity:1;isolation:auto;mix-blend-mode:normal;color-interpolation:sRGB;color-interpolation-filters:linearRGB;solid-color:#000000;solid-opacity:1;fill:#002a0a;fill-opacity:1;fill-rule:evenodd;stroke:none;stroke-width:1.77165353;stroke-linecap:butt;stroke-linejoin:miter;stroke-miterlimit:4;stroke-dasharray:none;stroke-dashoffset:0;stroke-opacity:1;color-rendering:auto;image-rendering:auto;shape-rendering:auto;text-rendering:auto;enable-background:accumulate"
       d="m 77.147771,6.9607866 c -1.692183,0.3454381 -2.196516,2.142699 -4.223628,0.2509308 -1.435637,0.063365 -1.12754,2.682479 -3.183594,0.7246094 -1.807932,0.3065605 -1.323196,3.1493422 -4.244141,2.5664062 -0.977736,2.49183 -3.978975,1.595591 -5.796875,0.707031 -1.626951,-1.2373166 -3.91688,-3.1869926 -6.074219,-2.2460935 -1.77313,0.9823679 -2.751228,2.6229015 -3.1875,4.4667965 -1.176983,1.906996 0.60738,3.746912 -0.210937,5.773437 0.784555,1.799138 2.312748,3.387063 0.964844,5.441407 -0.881978,1.946484 0.523357,4.833841 -2.048828,5.6875 -1.271798,1.135466 -0.474633,3.460804 1.298828,3.943359 1.821063,0.872675 3.009053,-0.03297 3.868279,-2.491405 0.864059,-2.323581 0.119813,-5.280523 2.118207,-6.402889 1.901713,-1.251571 4.4388,-1.041504 5.392657,-3.449298 3.216639,0.530242 7.161541,1.754266 9.515388,4.171717 2.591009,2.523556 5.714375,4.539653 9.246094,5.433594 1.36875,2.434913 4.452023,2.40719 6.330078,4.091797 2.058097,1.724199 4.765545,-0.484991 6.572265,1.476562 4.006768,1.573751 8.548491,-0.807611 12.070321,-2.824218 -0.42839,-1.587824 -1.18612,-2.895467 -2.67578,-2.964844 2.9279,-2.201932 -2.35329,-2.137466 0.30468,-4.404297 -2.78668,-1.801182 0.85564,-3.583501 -2.10547,-4.603516 1.54652,-2.169515 -1.400099,-3.076815 -0.51171,-5.046875 -0.775669,-1.244384 -2.197348,-0.896013 -2.423837,-2.535156 -1.923476,-0.142726 -2.996066,-0.45291 -2.925782,-2.576172 -1.647373,0.216793 -2.568008,-0.299332 -3.542968,-2.134766 C 88.572001,11.729211 89.350494,6.6598592 85.123361,8.8894518 83.533337,9.3013044 83.459191,5.0717245 80.484689,7.5789049 79.61101,7.6843492 78.839954,6.6153485 77.147771,6.9607866 Z m 0.176762,1.3466339 c 1.51825,0.1070951 2.454603,2.3389295 4.197266,0.7363281 1.6009,-1.2847227 2.44263,1.8934754 3.570312,1.5410154 1.395434,-1.5090719 2.847697,-0.323571 3.710938,0.904297 1.397126,0.175562 2.861453,0.04027 3.322265,1.582031 1.764829,-0.327693 2.116332,0.867926 2.583985,1.996094 1.581125,0.368381 2.594932,1.232347 2.595703,2.716797 1.36281,-0.193625 1.731774,0.381465 0.980469,1.582031 1.044769,0.826248 2.845319,1.521018 1.363281,2.955078 0.202283,0.867754 2.446608,1.867496 0.593758,2.818359 -0.258225,0.752591 2.28191,1.831099 0.60742,2.988282 -0.943385,0.986976 2.53568,1.753667 0.80273,2.6875 -1.10208,0.617268 -0.67335,0.991845 0.35157,1.271484 1.17936,0.327671 2.04863,1.031822 2.1914,1.621094 -0.52543,-0.05565 -1.30788,-0.119712 -2.35351,-0.08398 -1.57804,0.05392 -3.451331,0.279441 -4.416024,0.03125 -0.814056,-0.209439 -2.307345,-1.261091 -4.125,-2.371093 -1.817656,-1.110003 -3.994179,-2.536126 -6.341797,-4.017579 -4.695236,-2.962904 -10.064479,-6.15517 -14.765625,-7.533203 -1.654555,-0.484996 -4.225883,-0.6842 -6.425781,-0.783203 -1.241753,-0.05588 -2.263064,0.03869 -2.655564,-0.244014 -0.392499,-0.282703 -1.128157,-0.694569 -0.944046,-1.03333 0.334939,-0.697532 1.1531,-1.248309 1.519531,-1.986328 0.346861,-0.6986 0.652366,-1.239741 0.962891,-1.882812 0.326832,-0.291708 0.656742,-0.626766 1.28125,-0.603516 0.249421,-1.201932 1.533126,-1.838793 2.748047,-2.046875 0.324103,-2.0848495 1.979125,-1.1601006 3.271484,-0.701172 0.256067,-1.5243971 1.695899,-1.735991 2.94336,-0.7578116 0.823621,-0.237464 1.557291,-1.1166149 2.429687,-1.3867239 z M 55.234689,10.647264 c 0.921014,0.109073 1.875393,0.650527 2.720704,1.294922 0.982621,1.878472 3.081243,1.392912 4.802734,1.945312 -0.106475,0.47591 -0.144084,0.96876 -0.119141,1.455078 -0.680244,0.511385 -1.445146,1.074778 -2.413734,1.885589 -1.843038,1.393779 -2.729814,1.350646 -4.236656,2.499177 -1.052466,0.8022 -3.712645,5.014608 -4.421947,8.363101 0.61905,-2.54467 1.420399,-8.375212 0.113353,-8.331851 -0.918789,-1.529748 1.624148,-3.302543 0.02344,-4.773438 0.41698,-1.084845 1.274061,-1.720527 1.011719,-3.044921 0.710252,-1.078587 1.598517,-1.402042 2.519528,-1.292969 z m 5.930631,8.018486 c -0.09072,1.120024 -0.334678,1.922645 -0.682584,2.817451 -0.347905,0.894806 -0.89563,1.90249 -2.308593,1.794922 -1.451152,0.502675 -1.437156,0.101108 -3.494141,1.689461 -1.027737,2.671107 -0.656783,8.005725 -2.939453,8.83593 -2.628357,-0.0124 -1.257328,-2.630001 -0.04703,-3.310705 1.057227,-1.668184 0.710698,-3.09981 1.843011,-4.84607 1.132313,-1.74626 1.821075,-3.825282 3.088787,-4.810022 1.549983,-1.204004 3.849793,-2.640212 4.540006,-2.170967 z m 4.553744,1.020623 c 2.168908,0.09761 4.73901,0.645821 6.173829,1.066407 4.482871,1.314049 9.823876,4.463219 14.5,7.414062 2.33806,1.475422 4.51261,2.899237 6.353515,4.023438 1.840905,1.1242 3.312647,1.951005 4.414063,2.234375 1.236688,0.318172 2.845389,-0.0093 4.458989,-0.06445 0.8522,-0.02912 1.60365,-0.09152 2.16211,-0.148437 -2.92648,0.691722 -7.789284,2.938254 -10.488287,1.421875 -0.884556,-1.817814 -2.432086,-0.400603 -3.941406,-0.625 -1.893755,-0.08822 -2.322223,-2.12005 -4.3125,-2.146484 -1.91888,-0.23621 -2.705098,-2.680448 -4.574219,-2.78711 -3.501513,-0.864643 -6.289342,-3.153116 -8.878906,-5.515625 -2.484157,-2.232337 -6.734215,-3.589371 -9.916016,-3.361328 0.03969,-0.328085 0.358333,-0.843004 0.660157,-1.345703 1.214818,-0.186137 2.142636,-0.18214 3.388671,-0.16602 z"
       id="path4211"
       inkscape:connector-curvature="0"
       sodipodi:nodetypes="cccccccccccccccccccccccccccccccccccccccccccssssssccsccccccsccccsccccscsccccssccsssscccccccccc" />
    <path
       style="fill:#006c20;fill-rule:evenodd;stroke:#008080;stroke-width:0.29055119;stroke-linecap:butt;stroke-linejoin:miter;stroke-miterlimit:4;stroke-dasharray:none;stroke-opacity:1;fill-opacity:1"
       d="M 4.0370143,42.434884 3.2560803,39.441304 4.5576369,35.016011 4.6877926,32.738287 5.5988822,31.046264 5.9242714,27.336827 6.9655166,26.94636 C 7.659724,25.417024 7.0802552,24.099967 9.6337077,22.260757 l 5.4665373,-3.384048 13.080644,0.130156 3.90467,2.40788 c 1.648638,1.077763 3.297277,1.197674 4.945915,3.253891 0.889397,0.526844 1.778794,0.536898 2.668191,2.863425 2.335589,1.127609 4.017244,2.436866 3.253892,4.425292 1.140147,1.104268 2.002672,2.65273 2.277724,5.141149 1.110713,2.025936 3.125071,1.340934 5.07607,0.846012 1.762649,-0.02319 3.545664,-0.290755 5.141149,1.692023 1.502598,1.203635 0.678244,1.908637 -0.195234,2.603113 L 50.95813,41.198405 c -0.988302,0.561432 -2.114086,0.847899 -3.449125,0.715856 -5.413115,-1.961293 -12.033819,-3.274142 -16.985314,-6.312549 -5.333026,0.83942 -9.877179,1.616952 -15.553602,0.911089 -2.624806,1.004201 -5.249611,2.612512 -7.8744167,2.342802 z"
       id="path4259"
       inkscape:connector-curvature="0"
       sodipodi:nodetypes="cccccccccccccccccccccccc" />
    <path
       style="fill:#2eb44d;fill-opacity:1;fill-rule:evenodd;stroke:#ff6600;stroke-width:0.17716534;stroke-linecap:butt;stroke-linejoin:miter;stroke-miterlimit:4;stroke-dasharray:none;stroke-opacity:1"
       d="m 5.0131817,40.612705 c 0.095152,-1.006242 -0.304084,-1.518096 0.9110897,-3.644359 l 1.8221792,-1.49679 1.3015566,-2.99358 2.0824898,-2.147568 2.668192,-0.260312 2.407879,-1.626946 2.082491,1.106324 1.692023,-1.236479 1.171401,0.390467 2.863425,-1.366635 2.08249,0.780934 2.212647,-0.520622 1.49679,1.952335 2.863424,0.195233 2.212647,2.603113 1.822179,-0.390467 1.692023,2.40788 2.668191,0.130156 1.496791,2.147568 1.171401,3.579281 C 37.8716,39.401282 34.19206,37.332697 30.718924,35.146167 27.508189,36.156768 23.99267,36.801628 19.916005,36.773113 l -4.81576,-0.585701 c -2.536515,1.640629 -5.1643717,2.459175 -7.874417,2.538036 z"
       id="path5976"
       inkscape:connector-curvature="0"
       sodipodi:nodetypes="cccccccccccccccccccccccccc" />
    <path
       style="color:#000000;font-style:normal;font-variant:normal;font-weight:normal;font-stretch:normal;font-size:medium;line-height:normal;font-family:sans-serif;text-indent:0;text-align:start;text-decoration:none;text-decoration-line:none;text-decoration-style:solid;text-decoration-color:#000000;letter-spacing:normal;word-spacing:normal;text-transform:none;direction:ltr;block-progression:tb;writing-mode:lr-tb;baseline-shift:baseline;text-anchor:start;white-space:normal;clip-rule:nonzero;display:inline;overflow:visible;visibility:visible;opacity:1;isolation:auto;mix-blend-mode:normal;color-interpolation:sRGB;color-interpolation-filters:linearRGB;solid-color:#000000;solid-opacity:1;fill:#002a0a;fill-opacity:1;fill-rule:evenodd;stroke:none;stroke-width:1.77165353;stroke-linecap:butt;stroke-linejoin:miter;stroke-miterlimit:4;stroke-dasharray:none;stroke-dashoffset:0;stroke-opacity:1;color-rendering:auto;image-rendering:auto;shape-rendering:auto;text-rendering:auto;enable-background:accumulate"
       d="m 22.662424,17.36992 c -0.954208,0.06541 -1.892113,0.427585 -2.732422,1.050781 -2.136164,-0.575788 -4.543996,-1.286023 -6.433594,0.205079 -1.121253,1.53366 -3.385245,1.218566 -4.2695308,2.966796 -1.3767519,1.173428 -3.6600379,2.485044 -2.9570313,4.916016 -2.2713583,0.799621 -0.7405258,3.250004 -1.6738281,4.462891 -1.9856146,1.439812 -0.445643,3.7356 -1.4882813,5.482421 -0.7226127,2.136221 -1.3697416,5.145252 0.7207032,6.730469 0.6285028,0.912188 1.0007993,-0.428207 1.4804687,-0.828125 0.844525,-0.986185 1.5758245,-2.145895 2.4902344,-3.02539 3.1090862,0.325051 5.1760442,-1.53994 7.4589842,-2.470704 2.218721,0.215947 4.558988,0.679508 6.794922,0.390626 2.904962,-0.08908 5.710063,-0.244455 8.496094,-1.128907 3.327486,2.10022 7.233577,3.571738 11,4.535157 1.514496,0.567036 3.14911,0.509919 4.57289,1.278205 1.687048,0.70247 4.258129,0.487126 5.169297,0.09484 1.813523,-0.875968 3.162501,1.849861 4.804687,0.41211 2.45014,-2.336574 -1.349648,-4.532106 -3.453124,-4.986328 -1.747758,-0.888299 -3.74259,0.471628 -5.546876,0.517578 -2.325946,-0.745248 -0.832449,-4.379554 -3.078124,-5.697266 0.103026,-2.491487 -0.811853,-4.665298 -3.400391,-5.255859 -0.219303,-2.058179 -2.30799,-3.028202 -3.761719,-3.197266 -0.787091,-2.644074 -4.231674,-2.040233 -5.455078,-4.037109 -1.332151,-2.362268 -4.121244,-0.609826 -5.908203,-1.689453 -0.904682,-0.561583 -1.87587,-0.791975 -2.830078,-0.726562 z m -1.998864,2.133426 c 0.755481,0.374651 1.35036,0.961379 2.243004,-0.135381 1.576963,-0.527063 2.88084,1.730037 4.46875,0.851563 2.279822,-1.145688 2.70659,1.984116 4.494141,2.308593 1.609023,0.382506 4.358717,0.693327 4.349609,2.685547 1.230051,0.283543 1.444217,-0.286082 2.039063,0.898438 0.409008,1.895612 1.689668,2.696742 3.339844,3.449218 1.371174,1.095347 0.162032,2.956113 1.730468,4.003907 0.926414,1.276689 0.360084,3.052414 1.722657,3.992187 1.135832,1.800103 3.125261,1.533337 4.899062,0.974767 1.097266,-0.161903 2.4693,7.32e-4 3.573594,0.534999 0.700281,0.338802 2.230818,0.644488 2.142578,2.033203 -0.516611,0.918789 -1.560537,0.40527 -2.115234,0.265625 -1.206206,-0.303662 -2.503195,-1.073169 -3.636719,-0.339844 -1.890315,0.93913 -3.703626,-0.324116 -5.484375,-1.162109 -0.743853,-0.896418 -1.232484,-2.20462 -1.099609,-2.646485 0.08273,-1.212866 -0.714143,-2.939297 -2.718126,-3.504064 -2.835207,1.508907 -2.191796,-3.014954 -4.315078,-2.568201 -2.269083,1.770188 -1.932749,-1.891504 -3.498046,-1.978516 -1.459359,-0.225335 -2.977904,0.196319 -3.464844,-1.566406 -0.996705,-1.45459 -2.603222,0.382451 -3.539063,-0.580078 -0.586479,-0.382309 -1.274759,-0.638263 -1.982422,-0.619141 -1.425313,0.478639 -1.189556,2.612835 -4.123047,0.941406 -0.834613,0.9898 -1.219984,2.406784 -2.513671,0.511719 -1.867532,-0.719378 -2.924449,2.134207 -4.675782,1.634766 -1.63711,-0.03916 -2.9097167,0.738837 -3.2656243,2.271484 -1.6890886,0.620436 -1.0073665,2.643167 -2.1583612,3.464219 -1.4680583,0.989247 -2.2563036,3.495835 -2.6834357,5.436172 l -0.1074219,0.134765 c -0.3087573,-2.03247 0.499843,-4.025652 1.3027344,-5.853515 -1.4143702,-1.527856 0.6092378,-2.900139 1.4082031,-4.138672 -0.3617851,-1.139709 -0.8870608,-2.975997 0.9375,-3.220703 0.5140986,-0.819785 -0.7929256,-2.934405 0.9804688,-3.53125 1.3068148,-0.353 1.7378328,-0.96731 2.1542968,-2.021485 1.85609,-0.02229 2.565754,-1.745173 4.15625,-2.267578 1.406714,-0.290299 2.927444,0.928285 4.123047,-0.296875 0.267546,-0.142536 0.560109,-0.336927 1.315589,0.03773 z m 3.045739,8.366574 c 0.405935,-0.06475 0.812625,0.05682 1.18164,0.464844 0.380897,0.506076 1.637353,1.035618 2.216797,0.43164 1.585832,-1.407128 1.259761,1.341415 2.378907,1.953126 1.878008,-0.549701 3.79701,-0.967145 4.404296,1.246093 0.387855,0.528364 0.473543,1.551365 1.316407,1.050781 1.300928,-0.528832 2.697529,0.264627 2.720703,1.689454 0.817291,0.356171 2.102912,0.07952 2.970703,0.632812 1.16114,0.759263 0.739828,2.056229 1.423828,3.095703 0.09956,0.251775 0.242966,0.512848 0.388672,0.771485 -2.84468,-0.984158 -5.883095,-1.399279 -8.613281,-2.740235 -1.543046,-0.293634 -2.749522,-2.428969 -4.363282,-1.423828 -3.398658,0.971582 -6.986602,0.981633 -10.486328,1.005859 -1.467695,0.76009 -2.953301,-0.399781 -4.410156,-0.414062 -2.338132,1.370514 -4.813632,2.51066 -8.1796872,2.167969 l -0.8378906,1.05664 C 5.9173912,38.549457 5.6228029,38.312339 5.7211762,38.081482 5.8787223,36.838 7.6689523,36.324616 8.4788307,35.842576 8.1860853,34.637218 8.9304516,33.273144 9.9534393,32.676561 c 0.6858647,-0.684168 1.3559247,-2.040173 2.7714847,-2 0.909979,-0.312371 1.865167,0.760723 2.335937,-0.398438 0.841276,-1.157521 1.776918,-1.284046 2.730469,-0.505859 0.556354,0.654381 1.383178,0.472939 1.617187,-0.02148 0.327851,-1.260761 1.669635,-0.301838 2.451172,-0.498047 0.498344,-0.654303 1.17305,-1.274897 1.84961,-1.382817 z"
       id="path4232"
       inkscape:connector-curvature="0"
       sodipodi:nodetypes="scccccccccccccccccccccccsccccccccccscsccccccccccccccccccccccccscccccccccccccccccccccccs" />
    <path
       style="color:#000000;font-style:normal;font-variant:normal;font-weight:normal;font-stretch:normal;font-size:medium;line-height:normal;font-family:sans-serif;text-indent:0;text-align:start;text-decoration:none;text-decoration-line:none;text-decoration-style:solid;text-decoration-color:#000000;letter-spacing:normal;word-spacing:normal;text-transform:none;direction:ltr;block-progression:tb;writing-mode:lr-tb;baseline-shift:baseline;text-anchor:start;white-space:normal;clip-rule:nonzero;display:inline;overflow:visible;visibility:visible;opacity:1;isolation:auto;mix-blend-mode:normal;color-interpolation:sRGB;color-interpolation-filters:linearRGB;solid-color:#000000;solid-opacity:1;fill:#003b29;fill-opacity:1;fill-rule:evenodd;stroke:none;stroke-width:1.77165353;stroke-linecap:butt;stroke-linejoin:miter;stroke-miterlimit:4;stroke-dasharray:none;stroke-dashoffset:0;stroke-opacity:1;color-rendering:auto;image-rendering:auto;shape-rendering:auto;text-rendering:auto;enable-background:accumulate"
       d="m 51.584299,45.203904 c -2.550075,0.28578 -4.853683,1.587265 -6.757647,3.254841 -2.018705,1.768072 -3.561359,3.802602 -5.138997,5.977437 -0.795035,1.095986 -1.471414,2.319537 -1.971327,3.577566 -0.782696,0.73979 -1.955099,1.191074 -1.730271,2.362974 0.277543,1.446675 1.802117,2.595183 3.027401,2.482099 1.272561,-0.117447 3.035148,-0.850359 2.80693,-2.212413 -0.133636,-0.797569 -0.374206,-1.296934 0.234516,-1.894367 1.624282,-2.347902 3.301935,-4.708906 5.543782,-6.525341 1.477063,-1.196777 3.245063,-2.139722 5.200396,-2.097463 1.0844,0.02344 2.289607,0.193686 3.271052,-0.376431 1.204125,-0.699471 1.330046,-2.444472 0.437366,-3.487164 -0.653446,-0.763255 -1.592925,-1.020231 -2.532831,-1.101075 -0.795773,-0.06845 -1.597059,-0.04957 -2.39037,0.03934 z m 0.188828,1.333518 c 1.081552,-0.08875 3.531227,-0.635872 4.226532,0.698529 0.611347,1.173272 -1.951348,1.108111 -2.59916,1.082467 -2.161582,-0.08557 -4.318854,0.559671 -6.056366,1.861823 -2.019359,1.513378 -3.771179,3.348884 -5.228169,5.405788 -0.942507,1.330583 -1.360931,2.664169 -2.239558,4.037797 0.277962,0.380291 0.514825,1.49551 0.41382,1.622893 -0.571692,0.720992 -2.47839,0.570101 -2.803946,-0.459528 -0.234756,-0.742458 0.929344,-1.368953 1.376345,-1.873218 0.815122,-1.977483 1.844994,-4.061821 3.329531,-5.626346 1.899438,-2.001783 3.554265,-4.3463 5.970424,-5.723107 1.021539,-0.582107 2.441444,-0.931166 3.610547,-1.027098 z"
       id="path4191"
       inkscape:connector-curvature="0"
       sodipodi:nodetypes="ssscssscssssssssssscsscsss" />
    <path
       style="fill:url(#radialGradient6105);fill-rule:evenodd;stroke:#ffaaaa;stroke-width:0.29055119;stroke-linecap:butt;stroke-linejoin:miter;stroke-miterlimit:4;stroke-dasharray:none;stroke-opacity:1;fill-opacity:1"
       d="M 57.140524,54.213971 C 47.691666,57.787943 45.099586,67.686613 43.73449,76.1452 c -0.975843,6.046651 0.7873,12.787047 4.164982,17.896403 2.919141,4.41573 7.534745,9.658657 12.820332,9.371207 6.393548,-0.3477 11.797372,-7.0101 14.186967,-12.950487 2.945145,-7.32145 1.403777,-16.310083 -1.561868,-23.623253 -1.925828,-4.74902 -5.473331,-9.232167 -9.956908,-11.714009 -1.841253,-1.019208 -4.279056,-1.655631 -6.247471,-0.91109 z"
       id="path4249"
       inkscape:connector-curvature="0"
       sodipodi:nodetypes="ssssssss" />
    <path
       style="fill:url(#pattern5863);fill-opacity:1;fill-rule:evenodd;stroke:#ffaaaa;stroke-width:0.29055119;stroke-linecap:butt;stroke-linejoin:miter;stroke-miterlimit:4;stroke-dasharray:none;stroke-opacity:1;opacity:0.28"
       d="m 57.495609,54.40106 c -9.44886,3.57397 -12.04094,13.47264 -13.40603,21.93123 -0.97584,6.04665 0.7873,12.787052 4.16498,17.896402 2.91914,4.41573 7.53474,9.658658 12.82033,9.371208 6.393552,-0.3477 11.797372,-7.010098 14.186972,-12.950488 2.94514,-7.32145 1.40378,-16.310082 -1.56187,-23.623252 -1.92583,-4.74902 -5.47333,-9.23217 -9.956912,-11.71401 -1.84125,-1.01921 -4.27905,-1.65563 -6.24747,-0.91109 z"
       id="path4249-2"
       inkscape:connector-curvature="0"
       sodipodi:nodetypes="ssssssss" />
    <path
       style="color:#000000;font-style:normal;font-variant:normal;font-weight:normal;font-stretch:normal;font-size:medium;line-height:normal;font-family:sans-serif;text-indent:0;text-align:start;text-decoration:none;text-decoration-line:none;text-decoration-style:solid;text-decoration-color:#000000;letter-spacing:normal;word-spacing:normal;text-transform:none;direction:ltr;block-progression:tb;writing-mode:lr-tb;baseline-shift:baseline;text-anchor:start;white-space:normal;clip-rule:nonzero;display:inline;overflow:visible;visibility:visible;opacity:1;isolation:auto;mix-blend-mode:normal;color-interpolation:sRGB;color-interpolation-filters:linearRGB;solid-color:#000000;solid-opacity:1;fill:#120049;fill-opacity:1;fill-rule:evenodd;stroke:none;stroke-width:2.83464575;stroke-linecap:butt;stroke-linejoin:miter;stroke-miterlimit:4;stroke-dasharray:none;stroke-dashoffset:0;stroke-opacity:1;color-rendering:auto;image-rendering:auto;shape-rendering:auto;text-rendering:auto;enable-background:accumulate"
       d="m 58.953439,53.21953 c -0.334129,-0.0027 -0.670879,0.01073 -1.011718,0.03711 -5.375056,0.416051 -9.100796,4.625142 -11.794922,10.021484 -2.694126,5.396343 -3.733833,11.43478 -3.503906,16.382813 0.225231,4.846944 2.111083,11.017628 5.27539,16.054687 3.164306,5.037056 8.65931,8.937216 12.982422,8.654296 7.1471,-0.46774 11.49678,-4.972988 13.953125,-10.230468 2.456345,-5.257482 3.034142,-11.449685 2.769531,-16.441406 -0.267854,-5.05292 -2.608156,-11.314447 -6.117187,-16.40625 -3.289718,-4.773564 -7.540796,-8.031588 -12.552735,-8.072265 z m -0.261718,2.130859 c 3.643484,0.118873 7.463631,3.17406 10.478515,7.548828 3.215878,4.666419 5.3966,10.675471 5.623047,14.947266 0.245891,4.638579 -0.346861,10.466563 -2.507812,15.091797 -1.941806,4.156178 -4.979632,7.32866 -10.029297,8.29297 4.340556,-6.887908 6.99084,-14.063326 6.861328,-21.376955 -0.129227,-7.297564 -1.231238,-12.65343 -6.307194,-19.838056 -1.341841,-1.015796 -2.199988,0.03986 -1.121094,0.761719 4.844191,6.85658 5.446314,12.091263 5.52985,19.013837 0.08921,7.393503 -2.355205,14.70669 -6.90039,21.693355 -4.407464,0.27973 -8.149645,-2.777349 -10.976563,-7.277339 -2.860499,-4.553444 -4.580846,-10.451079 -4.777344,-14.679688 -0.19825,-4.266358 1.128196,-10.366169 3.595704,-15.308593 2.467507,-4.942426 5.982919,-8.557696 9.804687,-8.853516 0.241033,-0.01866 0.483664,-0.02355 0.726563,-0.01563 z"
       id="path4173"
       inkscape:connector-curvature="0"
       sodipodi:nodetypes="sssssssssssssscsccscsssss" />
    <path
       style="fill:#137a52;fill-rule:evenodd;stroke:#00ff00;stroke-width:0.29055119;stroke-linecap:butt;stroke-linejoin:miter;stroke-miterlimit:4;stroke-dasharray:none;stroke-opacity:1;fill-opacity:1"
       d="m 60.524571,41.784106 c -1.841597,0.263345 -2.909082,1.558837 -3.188814,3.904669 l -1.171401,10.282298 c -0.90708,0.597549 -1.755065,1.209872 -1.301557,2.147568 0.420906,0.864949 1.317678,1.432482 3.123736,1.431712 1.487232,-0.601326 2.870763,-1.254502 2.993581,-2.538035 0.180731,-1.352132 -0.816377,-1.526426 -1.82218,-1.692024 0.110352,-2.352704 -0.09448,-4.863002 0.650779,-6.89825 0.282743,-0.965691 0.182578,-1.739927 1.431712,-3.188813 l 1.757101,-1.431713 C 62.643257,42.659 62.081226,41.724241 60.524571,41.784106 Z"
       id="path4251"
       inkscape:connector-curvature="0"
       sodipodi:nodetypes="ccccccccccc" />
    <path
       style="color:#000000;font-style:normal;font-variant:normal;font-weight:normal;font-stretch:normal;font-size:medium;line-height:normal;font-family:sans-serif;text-indent:0;text-align:start;text-decoration:none;text-decoration-line:none;text-decoration-style:solid;text-decoration-color:#000000;letter-spacing:normal;word-spacing:normal;text-transform:none;direction:ltr;block-progression:tb;writing-mode:lr-tb;baseline-shift:baseline;text-anchor:start;white-space:normal;clip-rule:nonzero;display:inline;overflow:visible;visibility:visible;opacity:1;isolation:auto;mix-blend-mode:normal;color-interpolation:sRGB;color-interpolation-filters:linearRGB;solid-color:#000000;solid-opacity:1;fill:#003b29;fill-opacity:1;fill-rule:evenodd;stroke:none;stroke-width:1.77165353;stroke-linecap:butt;stroke-linejoin:miter;stroke-miterlimit:4;stroke-dasharray:none;stroke-dashoffset:0;stroke-opacity:1;color-rendering:auto;image-rendering:auto;shape-rendering:auto;text-rendering:auto;enable-background:accumulate"
       d="m 60.890939,41.225389 c -1.337186,-0.242265 -2.773011,0.506004 -3.368918,1.752862 -0.687401,1.438296 -0.726406,3.057326 -1.00536,4.598264 -0.466013,2.574251 -0.671541,5.188385 -0.92455,7.791452 -0.822512,0.566651 -1.777001,1.479699 -1.504534,2.577893 0.324311,1.307155 1.783305,1.894823 3.002227,2.014545 1.615686,0.158691 3.389824,-0.434052 4.418412,-1.731197 0.55174,-0.695795 0.644711,-1.747057 7.8e-4,-2.473472 -0.532452,-0.600655 -1.856538,-0.427809 -1.380169,-1.471117 -0.315277,-2.502786 -0.428428,-3.96525 0.437232,-6.407683 0.276567,-0.780326 0.523765,-2.26306 1.259036,-2.334051 1.14681,-0.110726 1.782208,-1.327377 1.500491,-2.327672 -0.381021,-1.352897 -1.233018,-1.772119 -2.434647,-1.989824 z m 0.611012,1.110941 c 1.253338,0.563724 0.689988,1.38462 -0.02266,1.867816 -1.048659,0.711019 -1.401773,1.059982 -1.71151,1.970932 -0.481555,1.416275 -0.810792,2.597423 -0.989093,4.064717 -0.247895,2.040014 0.01952,3.761451 -0.199778,5.804733 0.679199,0.132752 1.366781,0.208204 1.544455,0.891795 0.218979,0.842511 -1.254283,1.559068 -2.025332,1.694409 -0.734045,0.128845 -1.848395,-0.04262 -2.429303,-0.529555 -0.347704,-0.291453 -0.01308,-1.485374 1.049898,-1.669977 -0.239836,-4.2145 0.808398,-7.375243 1.339631,-10.405487 0.163519,-0.932739 0.488459,-2.28636 1.29396,-2.918 0.320901,-0.251637 1.229795,-1.185151 2.149735,-0.771383 z"
       id="path4196"
       inkscape:connector-curvature="0"
       sodipodi:nodetypes="ssscsssscsssssssscssscsss" />
  </g>
</svg>
