<?xml version="1.0" encoding="UTF-8" standalone="no"?>
<!-- Created with Inkscape (http://www.inkscape.org/) -->

<svg
   xmlns:dc="http://purl.org/dc/elements/1.1/"
   xmlns:cc="http://creativecommons.org/ns#"
   xmlns:rdf="http://www.w3.org/1999/02/22-rdf-syntax-ns#"
   xmlns:svg="http://www.w3.org/2000/svg"
   xmlns="http://www.w3.org/2000/svg"
   xmlns:sodipodi="http://sodipodi.sourceforge.net/DTD/sodipodi-0.dtd"
   xmlns:inkscape="http://www.inkscape.org/namespaces/inkscape"
   id="svg2"
   viewBox="0 0 280 305"
   height="305"
   width="280"
   version="1.1"
   sodipodi:docname="snowflake.svg"
   inkscape:version="0.92.3 (2405546, 2018-03-11)">
  <defs
     id="defs11" />
  <sodipodi:namedview
     pagecolor="#ffffff"
     bordercolor="#666666"
     borderopacity="1"
     objecttolerance="10"
     gridtolerance="10"
     guidetolerance="10"
     inkscape:pageopacity="0"
     inkscape:pageshadow="2"
     inkscape:window-width="1920"
     inkscape:window-height="1012"
     id="namedview9"
     showgrid="false"
     inkscape:zoom="0.77377049"
     inkscape:cx="140"
     inkscape:cy="152.5"
     inkscape:window-x="0"
     inkscape:window-y="0"
     inkscape:window-maximized="1"
     inkscape:current-layer="svg2" />
  <title
     id="title4188">Snowflake 11</title>
  <metadata
     id="metadata7">
    <rdf:RDF>
      <cc:Work
         rdf:about="">
        <dc:format>image/svg+xml</dc:format>
        <dc:type
           rdf:resource="http://purl.org/dc/dcmitype/StillImage" />
        <dc:title>Snowflake 11</dc:title>
        <dc:creator>
          <cc:Agent>
            <dc:title>Arvin61r58</dc:title>
          </cc:Agent>
        </dc:creator>
        <dc:publisher>
          <cc:Agent>
            <dc:title>Openclipart.org</dc:title>
          </cc:Agent>
        </dc:publisher>
        <dc:identifier>https://openclipart.org/</dc:identifier>
        <dc:source>https://openclipart.org/user-detail/Arvin61r58</dc:source>
        <dc:description>snowflake</dc:description>
        <dc:subject>
          <rdf:Bag>
            <rdf:li>snow</rdf:li>
            <rdf:li>snowflake</rdf:li>
            <rdf:li>winter</rdf:li>
            <rdf:li>nature</rdf:li>
            <rdf:li>weather</rdf:li>
          </rdf:Bag>
        </dc:subject>
        <cc:license
           rdf:resource="http://creativecommons.org/publicdomain/zero/1.0/" />
      </cc:Work>
      <cc:License
         rdf:about="http://creativecommons.org/publicdomain/zero/1.0/">
        <cc:permits
           rdf:resource="http://creativecommons.org/ns#Reproduction" />
        <cc:permits
           rdf:resource="http://creativecommons.org/ns#Distribution" />
        <cc:permits
           rdf:resource="http://creativecommons.org/ns#DerivativeWorks" />
      </cc:License>
    </rdf:RDF>
  </metadata>
  <g
     id="layer1"
     transform="translate(-232.28 -374.2)"
     inkscape:export-xdpi="96"
     inkscape:export-ydpi="96">
    <g
       id="g4184">
      <path
         id="path4415"
         style="fill:#d3f3f3"
         d="m372.09 389.2c-0.81233 0-2.5345 1.2608-3.8273 2.8019-1.2928 1.541-2.3681 4.4537-2.3911 6.4716l-0.0431 3.6677-4.1286-3.979c-2.2712-2.1891-3.6124-3.7783-6.011-3.981-1.2298-0.10393-2.5586 0.67245-3.3851 1.4943-0.8265 0.8219-1.5027 2.9408-1.5027 4.7087 0 2.277 2.1911 5.3706 7.5137 10.608l7.5137 7.3938v9.3007 9.3007l-3.7569-3.5802c-2.5479-2.4274-3.7568-4.787-3.7568-7.3335 0-2.5366-0.83579-5.2716-3.5397-8.0457-3.0288-3.1075-5.5333-3.9226-8.856-3.9226-3.2423 0-6.8338 1.6851-9.1652 4.0724-2.1236 2.1746-3.4849 4.9298-3.4849 8.4076 0 3.147 1.3589 4.8965 2.8176 6.9171 0.71471 0.99004 1.7833 1.686 2.7883 2.3835 0.88583 0.61484 1.8193 1.1925 2.8313 1.5683 2.3835 0.88514 4.9021 1.5566 7.4707 1.5566 3.8836 0 5.6777 0.98835 10.66 5.8684l5.9914 5.8684v10.589 10.589l-6.6136-6.4949c-4.4497-4.3698-7.6459-6.4949-9.7678-6.4949-1.7347 0-3.8304 0.67245-4.6569 1.4943-0.82651 0.82189-1.5027 2.9343-1.5027 4.6951 0 2.3749 2.9098 6.0822 11.271 14.358l11.271 11.155v12.791c0 1.5469 0.0258 2.9499 0.0645 4.2651v8.0671l-6.7388-3.8681 0.002-0.004c-1.3439-0.84079-2.8788-1.7606-4.5806-2.7377l-11.139-6.3957-4.0797-15.284c-3.0267-11.338-4.7997-15.696-6.868-16.883-1.5334-0.88038-3.7118-1.3554-4.8409-1.0546-1.129 0.30085-2.7623 1.7691-3.6297 3.263-1.061 1.8274-0.80794 5.644 0.77289 11.661l2.35 8.9426-9.2219-5.2944-9.2219-5.2944-2.1152-8.0943c-1.7588-6.7308-1.7226-8.7697 0.21915-12.114 1.2843-2.212 1.9585-4.7177 2.3793-7.2129 0.17872-1.0594 0.14341-2.1519 0.0509-3.2222-0.105-1.2142-0.17802-2.4813-0.68289-3.5918-1.0304-2.2665-1.8752-4.3124-4.6158-5.8859-3.0288-1.7389-6.1077-1.944-9.0634-1.2025-3.2448 0.81405-6.5089 3.0645-8.1301 5.8567-1.6613 2.8614-2.2035 5.4265-1.0116 9.5886 1.064 3.7156 3.029 5.8026 5.2381 7.0708 2.2178 1.2733 3.6682 3.4937 4.5082 6.9016l1.2386 5.0259-8.0988-4.6503-8.1007-4.6503-2.6826-10.168c-1.9001-7.2025-3.4976-10.635-5.4807-11.774-1.5397-0.88397-3.7236-1.3613-4.8526-1.0604-1.129 0.30083-2.4693 1.0565-2.9937 2.1676-1.0228 2.167-0.30905 4.1157 0.46177 7.1662l1.401 5.5454-3.2168-1.7959c-1.7688-0.98917-4.8423-1.52-6.8308-1.1772-1.9885 0.34282-3.9475 1.1956-4.3536 1.8952-0.0355 0.0611-0.0603 0.146-0.0861 0.22764-0.0582 0.063-0.11907 0.12569-0.15457 0.18679-0.40615 0.69957-0.16931 2.8132 0.52635 4.697 0.6957 1.8839 2.6939 4.2676 4.4397 5.2963l3.1738 1.8699-5.5296 1.5663c-3.0421 0.86142-5.097 1.221-6.4728 3.1852-0.70542 1.0071-0.69384 2.5411-0.39134 3.6638 0.30254 1.1227 1.8102 2.7643 3.3499 3.6483 1.9831 1.1385 5.7717 0.79745 12.994-1.1674l10.196-2.7727 8.1007 4.6503 8.0988 4.6503-4.9954 1.4437c-3.3879 0.98051-6.0473 0.84326-8.2651-0.43-2.2091-1.2683-5.0098-1.9163-8.7777-0.97483-4.2207 1.0546-6.183 2.8026-7.8444 5.6641-1.6212 2.7922-1.9485 6.7278-1.0351 9.9292 0.83203 2.9161 2.5498 5.4662 5.5785 7.2051 2.7407 1.5735 4.9444 1.2791 7.4335 1.0332 1.2196-0.12049 2.3612-0.69356 3.4712-1.2103 0.9784-0.45543 1.9472-0.97024 2.7805-1.6539 1.9626-1.6101 3.807-3.4424 5.0913-5.6543 1.9418-3.3445 3.6997-4.3971 10.441-6.2478l8.1066-2.224 9.2219 5.2944 9.2219 5.2944-8.9636 2.4478c-6.0306 1.6471-9.4798 3.3367-10.541 5.164-0.86735 1.4939-1.3298 3.6346-1.0273 4.7574 0.30252 1.1227 1.8047 2.762 3.3381 3.6424 2.0683 1.1875 6.7511 0.53489 18.139-2.5275l15.35-4.1289 11.139 6.3957c1.3471 0.77344 2.5824 1.4538 3.7471 2.0781l7.5978 4.3604-6.508 3.7358-0.002-0.004c-1.4042 0.73693-2.9727 1.5991-4.6746 2.5762l-11.139 6.3957-15.35-4.1289c-11.388-3.0624-16.072-3.715-18.141-2.5275-1.5335 0.88039-3.0336 2.5197-3.3362 3.6424-0.30252 1.1227 0.15992 3.2635 1.0273 4.7574 1.061 1.8274 4.5082 3.5169 10.539 5.164l8.9636 2.4477-9.2219 5.2944-9.2219 5.2944-8.1066-2.224c-6.7412-1.8507-8.4972-2.9033-10.439-6.2478-1.2843-2.212-3.1287-4.0443-5.0913-5.6543-0.83329-0.68362-1.804-1.1984-2.7824-1.6539-1.11-0.5167-2.2496-1.0898-3.4692-1.2102-2.4891-0.2459-4.6928-0.54029-7.4335 1.0332-3.0288 1.7389-4.7465 4.289-5.5785 7.2051-0.91344 3.2014-0.58608 7.135 1.0351 9.9272 1.6613 2.8614 3.6236 4.6114 7.8444 5.666 3.7679 0.94149 6.5667 0.29348 8.7758-0.97482 2.2178-1.2733 4.8772-1.4105 8.2651-0.43001l4.9974 1.4438-8.1007 4.6503-8.0988 4.6503-10.196-2.7727c-7.2227-1.9649-11.013-2.306-12.996-1.1674-1.5397 0.88396-3.0473 2.5255-3.3499 3.6483-0.30252 1.1227-0.31408 2.6567 0.39133 3.6638 1.3758 1.9642 3.4307 2.3238 6.4728 3.1852l5.5296 1.5663-3.1718 1.8699c-1.7459 1.0287-3.746 3.4124-4.4417 5.2963-0.69569 1.8839-0.93252 3.9975-0.52635 4.697 0.0355 0.0611 0.0983 0.12379 0.15653 0.18679 0.0257 0.0816 0.0487 0.16652 0.0842 0.22765 0.40617 0.69956 2.3652 1.5523 4.3536 1.8952 1.9885 0.34281 5.064-0.18802 6.8328-1.1772l3.2148-1.7959-1.401 5.5434c-0.77083 3.0505-1.4845 5.0012-0.46178 7.1681 0.52441 1.1111 1.8647 1.8667 2.9937 2.1676 1.1291 0.30083 3.3129-0.17647 4.8526-1.0604 1.9831-1.1385 3.5826-4.5712 5.4827-11.774l2.6826-10.168 8.0988-4.6503 8.1007-4.6503-1.2405 5.0259c-0.84003 3.4079-2.2905 5.6283-4.5082 6.9016-2.2091 1.2683-4.1721 3.3553-5.2361 7.0708-1.1919 4.1621-0.64974 6.7272 1.0116 9.5886 1.6212 2.7922 4.8853 5.0426 8.1301 5.8567 2.9557 0.74153 6.0346 0.53641 9.0634-1.2025 2.7407-1.5735 3.5854-3.6194 4.6158-5.8859 0.50487-1.1105 0.57593-2.3776 0.68093-3.5918 0.0926-1.0703 0.12982-2.1627-0.0489-3.2222-0.4209-2.4952-1.0951-5.0009-2.3793-7.2129-1.9418-3.3445-1.9799-5.3835-0.22111-12.114l2.1152-8.0943 9.2219-5.2944 9.2219-5.2944-2.35 8.9426c-1.5808 6.0169-1.8319 9.8335-0.77093 11.661 0.86734 1.4939 2.5006 2.9622 3.6297 3.263 1.129 0.30084 3.3054-0.17419 4.8389-1.0546 2.0683-1.1874 3.8433-5.5473 6.87-16.885l4.0797-15.282 11.139-6.3957c1.3472-0.77342 2.5564-1.4981 3.6825-2.189l7.5078-4.3098v6.8588h-0.004c-0.0603 1.5777-0.0939 3.3597-0.0939 5.3138v12.791l-11.271 11.155c-8.3608 8.2755-11.271 11.983-11.271 14.358 0 1.7608 0.67623 3.8732 1.5027 4.6951 0.82651 0.82189 2.9223 1.4944 4.6569 1.4943 2.1219 0.00001 5.3181-2.1251 9.7678-6.4949l6.6136-6.4949v10.589 10.589l-5.9914 5.8684c-4.9824 4.88-6.7765 5.8684-10.66 5.8684-2.5685 0-5.0871 0.67144-7.4707 1.5566-1.012 0.37581-1.9455 0.95345-2.8313 1.5683-1.005 0.69753-2.0736 1.3935-2.7883 2.3835-1.4587 2.0206-2.8176 3.7702-2.8176 6.9171 0 3.4778 1.3612 6.233 3.4849 8.4076 2.3314 2.3873 5.9228 4.0724 9.1652 4.0724 3.3227 0 5.8272-0.81513 8.856-3.9226 2.7039-2.7741 3.5397-5.5091 3.5397-8.0456 0-2.5466 1.209-4.9062 3.7568-7.3335l3.7569-3.5802v9.3007 9.3007l-7.5137 7.3938c-5.3226 5.2376-7.5137 8.3312-7.5137 10.608-0.00001 1.7679 0.67623 3.8868 1.5027 4.7087 0.82651 0.82188 2.1552 1.5982 3.3851 1.4943 2.3986-0.20269 3.7397-1.7919 6.011-3.981l4.1286-3.979 0.0431 3.6677c0.0229 2.0178 1.0983 4.9305 2.3911 6.4716 1.2928 1.541 3.015 2.8019 3.8273 2.8019 0.0709 0 0.15669-0.0222 0.24067-0.0408 0.084 0.0186 0.1697 0.0408 0.24068 0.0408 0.81233 0 2.5345-1.2609 3.8273-2.8019s2.3681-4.4537 2.3911-6.4716l0.0431-3.6677 4.1286 3.979c2.2712 2.1891 3.6124 3.7783 6.011 3.981 1.2298 0.10393 2.5586-0.67246 3.3851-1.4943 0.82652-0.82191 1.5027-2.9408 1.5027-4.7087-0.00001-2.2771-2.1911-5.3706-7.5137-10.608l-7.5137-7.3938v-9.3007-9.3007l3.7568 3.5802c2.5479 2.4274 3.7569 4.787 3.7569 7.3335 0.00001 2.5366 0.83578 5.2716 3.5396 8.0456 3.0289 3.1075 5.5333 3.9226 8.856 3.9226 3.2423 0.00001 6.8338-1.6851 9.1652-4.0724 2.1236-2.1746 3.4849-4.9298 3.4849-8.4076 0.00001-3.147-1.359-4.8965-2.8176-6.9171-0.71473-0.99004-1.7833-1.686-2.7883-2.3835-0.88583-0.61486-1.8193-1.1925-2.8314-1.5683-2.3835-0.88514-4.9021-1.5566-7.4706-1.5566-3.8836 0-5.6777-0.98835-10.66-5.8684l-5.9914-5.8684v-10.589-10.589l6.6136 6.4949c4.4497 4.3698 7.6459 6.4949 9.7678 6.4949 1.7347 0 3.8304-0.67245 4.6569-1.4943 0.82652-0.82189 1.5028-2.9343 1.5027-4.6951 0-2.3749-2.9098-6.0822-11.271-14.358l-11.271-11.155v-12.791c0.00001-1.5469-0.0258-2.9499-0.0645-4.2651v-7.9386l6.6234 3.802-0.002 0.004c1.3439 0.8408 2.8788 1.7606 4.5806 2.7377l11.139 6.3957 4.0797 15.284c3.0267 11.338 4.8017 15.698 6.87 16.885 1.5335 0.88039 3.7099 1.3535 4.8389 1.0526 1.129-0.30084 2.7623-1.7692 3.6297-3.263 1.061-1.8274 0.8099-5.642-0.77093-11.659l-2.35-8.9446 9.2219 5.2944 9.2219 5.2944 2.1152 8.0943c1.7588 6.7308 1.7227 8.7697-0.21915 12.114-1.2843 2.212-1.9604 4.7177-2.3813 7.2129-0.17872 1.0594-0.14145 2.1519-0.0489 3.2222 0.10499 1.2142 0.17606 2.4813 0.68093 3.5918 1.0304 2.2665 1.8752 4.3124 4.6158 5.8859 3.0288 1.7389 6.1097 1.944 9.0654 1.2025 3.2448-0.81405 6.5069-3.0645 8.1281-5.8567 1.6613-2.8614 2.2035-5.4246 1.0116-9.5867-1.064-3.7156-3.027-5.8045-5.2361-7.0728-2.2178-1.2733-3.6682-3.4937-4.5082-6.9016l-1.2405-5.0259 8.1007 4.6503 8.0988 4.6503 2.6826 10.168c1.9001 7.2025 3.4996 10.635 5.4826 11.774 1.5397 0.88398 3.7236 1.3613 4.8526 1.0604 1.129-0.30083 2.4693-1.0565 2.9937-2.1676 1.0228-2.1669 0.30905-4.1157-0.46178-7.1662l-1.401-5.5454 3.2148 1.7959c1.7688 0.98916 4.8443 1.52 6.8328 1.1772 1.9885-0.34283 3.9475-1.1956 4.3536-1.8952 0.0355-0.0611 0.0584-0.14602 0.0842-0.22765 0.0582-0.063 0.12103-0.12568 0.15654-0.18679 0.40617-0.69957 0.16931-2.8132-0.52635-4.697-0.69569-1.8838-2.6958-4.2657-4.4417-5.2944l-3.1718-1.8699 5.5296-1.5663c3.0421-0.86142 5.097-1.2229 6.4728-3.1871 0.70542-1.0072 0.69386-2.5392 0.39134-3.6619-0.30253-1.1227-1.8102-2.7643-3.3499-3.6483-1.9831-1.1385-5.7737-0.79746-12.996 1.1674l-10.196 2.7727-8.0988-4.6503-8.1007-4.6503 4.9974-1.4457c3.3879-0.9805 6.0473-0.84131 8.2651 0.43195 2.2091 1.2683 5.0079 1.9163 8.7758 0.97482 4.2207-1.0546 6.1831-2.8046 7.8444-5.666 1.6212-2.7922 1.9505-6.7278 1.037-9.9291-0.83206-2.9162-2.5517-5.4662-5.5805-7.2051-2.7407-1.5735-4.9444-1.2771-7.4335-1.0312-1.2196 0.12048-2.3592 0.69355-3.4692 1.2102-0.97839 0.45542-1.9491 0.97024-2.7824 1.6539-1.9626 1.6101-3.8071 3.4424-5.0913 5.6543-1.9418 3.3445-3.6978 4.3951-10.439 6.2458l-8.1066 2.2259-9.2219-5.2944-9.2219-5.2944 8.9636-2.4477c6.0306-1.6471 9.4778-3.3367 10.539-5.164 0.86734-1.4939 1.3298-3.6346 1.0273-4.7574-0.30253-1.1227-1.8027-2.7621-3.3362-3.6424-2.0683-1.1874-6.753-0.53488-18.141 2.5275l-15.35 4.1289-11.139-6.3957c-1.3472-0.77342-2.5824-1.4538-3.7471-2.078l-7.5157-4.3157 6.5862-3.7806 0.002 0.002c1.4042-0.73692 2.9727-1.5991 4.6745-2.5762l11.139-6.3957 15.35 4.1289c11.388 3.0624 16.072 3.715 18.141 2.5275 1.5335-0.88039 3.0336-2.5197 3.3362-3.6424 0.30252-1.1227-0.15992-3.2635-1.0273-4.7573-1.061-1.8274-4.5082-3.5169-10.539-5.164l-8.9636-2.4478 9.2219-5.2944 9.2219-5.2944 8.1066 2.224c6.7412 1.8507 8.4991 2.9033 10.441 6.2478 1.2843 2.212 3.1267 4.0443 5.0894 5.6543 0.8333 0.68361 1.804 1.1984 2.7824 1.6539 1.11 0.51671 2.2496 1.0898 3.4692 1.2103 2.4891 0.24589 4.6928 0.54028 7.4335-1.0332 3.0288-1.7389 4.7484-4.289 5.5805-7.2051 0.91343-3.2014 0.58412-7.1369-1.037-9.9292-1.6613-2.8614-3.6236-4.6094-7.8444-5.6641-3.7679-0.94148-6.5667-0.29348-8.7758 0.97482-2.2178 1.2733-4.8772 1.4105-8.2651 0.43001l-4.9974-1.4437 8.1007-4.6503 8.0988-4.6503 10.196 2.7727c7.2227 1.9649 11.013 2.306 12.996 1.1674 1.5397-0.88397 3.0473-2.5256 3.3499-3.6483 0.30252-1.1227 0.31408-2.6567-0.39134-3.6638-1.3758-1.9643-3.4307-2.3238-6.4728-3.1852l-5.5296-1.5663 3.1718-1.8699c1.7458-1.0287 3.746-3.4125 4.4417-5.2963 0.69567-1.8839 0.93251-3.9975 0.52635-4.697-0.0355-0.0611-0.0983-0.12382-0.15654-0.18679-0.0255-0.081-0.0491-0.16468-0.0842-0.2257v-0.002c-0.40761-0.69936-2.3662-1.5506-4.3536-1.8932-1.9885-0.34282-5.064 0.18607-6.8328 1.1752l-3.2148 1.7979 1.401-5.5454c0.77083-3.0505 1.4845-4.9992 0.46178-7.1662-0.52442-1.1111-1.8647-1.8687-2.9937-2.1695-1.129-0.30083-3.3129 0.17647-4.8526 1.0604-1.9831 1.1385-3.5826 4.5732-5.4826 11.776l-2.6826 10.167-8.0988 4.6503-8.1007 4.6503 1.2405-5.0239c0.84004-3.4078 2.2904-5.6302 4.5082-6.9035 2.2091-1.2683 4.1721-3.3553 5.2361-7.0708 1.1919-4.1621 0.64974-6.7253-1.0116-9.5867-1.6212-2.7922-4.8833-5.0426-8.1281-5.8567-2.9557-0.74153-6.0366-0.53641-9.0654 1.2025-2.7407 1.5735-3.5854 3.6174-4.6158 5.8839-0.50486 1.1105-0.57594 2.3795-0.68093 3.5938-0.0926 1.0703-0.12982 2.1627 0.0489 3.2222 0.4209 2.4952 1.097 4.999 2.3813 7.2109 1.9418 3.3445 1.978 5.3854 0.21915 12.116l-2.1152 8.0924-9.2219 5.2944-9.2219 5.2944 2.35-8.9426c1.5808-6.0169 1.8319-9.8316 0.77093-11.659-0.86734-1.4939-2.5006-2.9622-3.6297-3.263-1.129-0.30082-3.3054 0.17226-4.8389 1.0526-2.0683 1.1874-3.8432 5.5473-6.87 16.885l-4.0797 15.284-11.139 6.3957c-1.3472 0.77341-2.5565 1.4961-3.6825 2.187l-7.5528 4.3371v-6.9483h0.004c0.0603-1.5777 0.0939-3.3597 0.0939-5.3138v-12.791l11.271-11.155c8.3608-8.2755 11.271-11.983 11.271-14.358 0-1.7608-0.67623-3.8732-1.5027-4.6951-0.82651-0.82188-2.9223-1.4943-4.6569-1.4943-2.1219 0-5.3181 2.125-9.7678 6.4949l-6.6136 6.4949v-10.589-10.589l5.9914-5.8684c4.9824-4.88 6.7765-5.8684 10.66-5.8684 2.5685 0 5.0871-0.67145 7.4706-1.5566 1.012-0.37582 1.9455-0.95344 2.8314-1.5683 1.005-0.69753 2.0736-1.3935 2.7883-2.3835 1.4587-2.0206 2.8176-3.7702 2.8176-6.9171 0-3.4778-1.3612-6.233-3.4849-8.4076-2.3314-2.3873-5.9228-4.0724-9.1652-4.0724-3.3227 0-5.8272 0.81513-8.856 3.9226-2.7039 2.7741-3.5396 5.5091-3.5396 8.0457 0 2.5466-1.209 4.9062-3.7569 7.3335l-3.7568 3.5802v-9.3007-9.3007l7.5137-7.3938c5.3226-5.2376 7.5137-8.3312 7.5137-10.608 0-1.768-0.67623-3.8868-1.5027-4.7087-0.82651-0.82188-2.1552-1.5982-3.3851-1.4943-2.3986 0.20269-3.7397 1.7919-6.011 3.981l-4.1286 3.979-0.0431-3.6677c-0.0229-2.0178-1.0983-4.9305-2.3911-6.4715s-3.015-2.8019-3.8273-2.8019c-0.0709 0-0.15673 0.0222-0.24068 0.0408-0.084-0.0186-0.1697-0.0408-0.24067-0.0408zm0.0137 2.9536c0.0751 0.001 0.15085 0.0111 0.22698 0.0292 0.60905-0.14475 1.1578 0.24268 2.1191 1.1986 1.1218 1.1156 1.8784 4.1594 1.8784 7.5592 0 3.131 0.3256 5.6933 0.72398 5.6933s2.8904-2.2415 5.5374-4.9811 5.7026-4.9811 6.7897-4.9811c1.285 0 1.9763 1.1146 1.9763 3.1832 0 2.2382-2.1915 5.3197-7.3865 10.39l-7.3865 7.209-0.44026 12.025c-0.24231 6.6135-0.002 12.025 0.53222 12.025 0.5347-0.00053 3.4932-2.5086 6.5745-5.5726 4.2032-4.1796 5.602-6.5261 5.602-9.396 0-2.401 1.1446-4.9636 3.074-6.8821 1.9376-1.9268 4.5044-3.0568 6.9443-3.0568s5.1699 1.2614 6.9443 3.0568c1.847 1.8688 3.074 4.4583 3.074 7.2421 0 3.5662-2.2562 5.5972-4.5904 7.2712-2.6981 1.9351-7.1914 2.3544-9.6954 2.3544-3.8466 0-5.6171 1.0579-11.413 6.8218l-6.8602 6.8218v11.857c0 10.327 0.27384 11.857 2.1269 11.857 1.1702 0 4.7736-2.8019 8.0068-6.2264 4.1393-4.3842 6.8431-6.2264 9.1417-6.2264 2.6603 0 3.2657 0.58575 3.2657 3.1618 0 2.3272-2.9728 6.0911-11.271 14.272l-11.271 11.112v13.124c0 1.4038 0.0223 2.6788 0.0528 3.8934v12.054h1.1916l0.008 0.0136 0.0234-0.0136h1.131v-0.64988l8.3042-4.7671c1.3615-0.72118 2.8425-1.533 4.473-2.4691l11.429-6.563 4.0425-15.262c2.9759-11.236 4.7688-15.677 6.7956-16.84 2.2435-1.288 3.0548-1.0593 4.385 1.2317 1.1493 1.9795 0.89742 5.2289-0.85115 10.986-1.3658 4.4966-2.0037 8.9992-1.4186 10.007 0.92654 1.5958 2.3962 1.0677 11.39-4.0958l10.325-5.9287 2.5124-9.3182c2.1216-7.8736 2.1581-9.9282 0.23481-13.241-1.252-2.1564-3.1343-6.2352-2.7981-9.5264 0.29086-2.8472 0.93088-5.8053 4.0367-7.5884 2.4244-1.3919 5.2933-1.631 7.8444-0.97482 2.4508 0.63042 4.9143 2.3507 6.1342 4.4519 1.22 2.1012 1.5193 4.8767 0.81007 7.5086-0.70617 2.6208-2.3664 4.8878-4.4574 6.0882-2.4994 1.4349-3.8425 3.813-5.3809 9.5225-1.1278 4.1856-1.8322 7.9877-1.5654 8.4484 0.26684 0.46064 5.0998-2.0378 10.738-5.5532l10.251-6.3918 2.5848-9.9661c1.8184-7.0092 3.4063-10.437 5.3555-11.556 1.8016-1.0343 3.1183-0.99762 3.7608 0.10896 0.54357 0.93622 0.11928 4.6901-0.94312 8.3395s-1.7685 6.9146-1.5693 7.2576c0.19919 0.34307 2.5935-0.65655 5.3203-2.222 2.9609-1.6999 5.991-2.5701 7.5235-2.1617 1.3131 0.34988 1.925 0.62895 2.1034 1.2258 0.43059 0.45211 0.36749 1.1167 0.0156 2.4224-0.41062 1.5239-2.6842 3.6976-5.6451 5.3975-2.7268 1.5655-4.7955 3.1281-4.5963 3.4712 0.19919 0.34307 3.3973 1.3687 7.1067 2.2785 3.7094 0.90975 7.1893 2.4202 7.7329 3.3564 0.64247 1.1066 0.017 2.2579-1.7845 3.2922-1.9492 1.1191-5.7285 0.77307-12.742-1.1655l-9.9713-2.7571-10.691 5.6349c-5.8808 3.0981-10.474 6.0098-10.206 6.4696 0.26779 0.4602 3.9307 1.7543 8.1398 2.8758 5.7416 1.5299 8.4836 1.5614 10.983 0.12647 2.091-1.2005 4.8958-1.4961 7.5313-0.79386 2.6468 0.70524 4.9143 2.3507 6.1342 4.4519 1.22 2.1012 1.4864 5.0829 0.81007 7.5086-0.70405 2.525-2.346 4.8773-4.7704 6.2692-3.1058 1.7831-6.002 0.85403-8.6271-0.31911-3.0344-1.356-5.6453-5.0156-6.8974-7.172-1.9233-3.3126-3.7303-4.3074-11.648-6.4171l-9.3726-2.4983-10.325 5.9287c-8.9937 5.1635-10.19 6.1657-9.263 7.7616 0.58511 1.0078 4.8264 2.7104 9.4254 3.7825 5.8879 1.3726 8.8436 2.7798 9.9928 4.7593 1.3301 2.291 1.1243 3.1035-1.1192 4.3916-2.0268 1.1636-6.7925 0.48704-18.066-2.5684l-15.313-4.1503-11.429 6.561c-1.2226 0.70189-2.321 1.3589-3.3636 1.9924l-9.2904 5.3352-0.0137-0.008-0.0137 0.0233-1.1799 0.67713 0.39328 0.67711-0.37764 0.64793 1.129 0.64793 0.0313 0.0545 0.0313-0.0175 8.267 4.7457c1.3088 0.81195 2.7564 1.6829 4.3869 2.619l11.429 6.5611 15.313-4.1503c11.274-3.0554 16.039-3.734 18.066-2.5703 2.2435 1.288 2.4494 2.1025 1.1192 4.3935-1.1493 1.9795-4.105 3.3867-9.9928 4.7593-4.599 1.0721-8.8403 2.7748-9.4254 3.7825-0.92655 1.5958 0.2693 2.5981 9.263 7.7616l10.325 5.9287 9.3726-2.4984c7.9178-2.1097 9.7249-3.1044 11.648-6.4171 1.252-2.1564 3.863-5.816 6.8974-7.172 2.6251-1.1731 5.5213-2.1022 8.6271-0.3191 2.4244 1.3919 4.0664 3.7442 4.7704 6.2692 0.67635 2.4258 0.40989 5.4074-0.81007 7.5086s-3.4875 3.7466-6.1342 4.4519c-2.6355 0.70223-5.4403 0.40661-7.5313-0.79387-2.4994-1.4349-5.2413-1.4034-10.983 0.12647-4.2091 1.1215-7.872 2.4156-8.1398 2.8758-0.26776 0.46012 4.3253 3.3715 10.206 6.4696l10.691 5.6329 9.9713-2.7552c7.0135-1.9386 10.793-2.2865 12.742-1.1674 1.8016 1.0343 2.427 2.1876 1.7845 3.2942-0.54356 0.93622-4.0234 2.4467-7.7329 3.3564-3.7094 0.90976-6.9075 1.9354-7.1067 2.2785-0.1992 0.34307 1.8695 1.9057 4.5963 3.4712 2.9609 1.6999 5.2344 3.8717 5.6451 5.3956 0.35185 1.3058 0.41494 1.9723-0.0156 2.4244-0.17845 0.59687-0.79033 0.87593-2.1034 1.2258-1.5324 0.40832-4.5626-0.46182-7.5235-2.1617-2.7268-1.5655-5.1211-2.5651-5.3203-2.222-0.19918 0.34307 0.50687 3.6083 1.5693 7.2576 1.0624 3.6494 1.4867 7.4032 0.94312 8.3395-0.64247 1.1066-1.9592 1.1433-3.7608 0.10896-1.9492-1.1191-3.537-4.5466-5.3555-11.556l-2.5848-9.9661-10.251-6.3918c-5.6385-3.5154-10.472-6.0135-10.738-5.5532-0.2669 0.46072 0.43752 4.2629 1.5654 8.4484 1.5384 5.7095 2.8816 8.0875 5.3809 9.5225 2.091 1.2005 3.7512 3.4675 4.4574 6.0882 0.70922 2.632 0.40988 5.4074-0.81007 7.5086s-3.6834 3.8214-6.1342 4.4519c-2.5511 0.65621-5.42 0.41706-7.8444-0.97482-3.1058-1.7831-3.7458-4.7412-4.0367-7.5884-0.33621-3.2911 1.5461-7.3699 2.7981-9.5264 1.9233-3.3126 1.8868-5.3672-0.23481-13.241l-2.5124-9.3182-10.325-5.9287c-8.9937-5.1634-10.463-5.6936-11.39-4.0977-0.58511 1.0078 0.0529 5.5123 1.4186 10.009 1.7486 5.7568 2.0004 9.0062 0.85115 10.986-1.3301 2.291-2.1414 2.5197-4.385 1.2317-2.0268-1.1636-3.8197-5.606-6.7956-16.842l-4.0425-15.26-11.429-6.563c-1.2226-0.70189-2.3434-1.3199-3.4164-1.901l-9.3276-5.3547v-0.70824h-2.3539v10.861c-0.0527 1.5331-0.0861 3.214-0.0861 5.0862v13.124l11.271 11.112c8.2978 8.181 11.271 11.945 11.271 14.272 0 2.5761-0.60545 3.1618-3.2657 3.1618-2.2986-0.00001-5.0024-1.8421-9.1417-6.2264-3.2332-3.4245-6.8366-6.2264-8.0068-6.2264-1.8531 0-2.1269 1.5305-2.1269 11.857v11.857l6.8602 6.8218c5.7963 5.7638 7.5668 6.8218 11.413 6.8218 2.504 0 6.9973 0.41925 9.6954 2.3544 2.3342 1.6741 4.5904 3.7051 4.5904 7.2712 0.00001 2.7838-1.2269 5.3732-3.074 7.2421-1.7744 1.7954-4.5044 3.0568-6.9443 3.0568s-5.0067-1.13-6.9443-3.0568c-1.9293-1.9185-3.074-4.4811-3.074-6.8821 0-2.8699-1.3989-5.2164-5.602-9.396-3.0813-3.064-6.0398-5.5721-6.5745-5.5726-0.53459-0.00053-0.77452 5.4112-0.53222 12.025l0.44026 12.025 7.3865 7.209c5.195 5.0706 7.3865 8.1521 7.3865 10.39 0 2.0686-0.69131 3.1832-1.9763 3.1832-1.0871 0.00001-4.1427-2.2415-6.7897-4.9811s-5.1391-4.9811-5.5374-4.9811c-0.39838-0.00001-0.72397 2.5623-0.72398 5.6933 0 3.3998-0.75658 6.4437-1.8784 7.5592-0.96126 0.95589-1.51 1.3433-2.1191 1.1986-0.60904 0.14475-1.1578-0.24269-2.1191-1.1986-1.1218-1.1156-1.8784-4.1594-1.8784-7.5592 0-3.131-0.32561-5.6932-0.72399-5.6933-0.39837 0.00001-2.8904 2.2415-5.5374 4.9811s-5.7026 4.9811-6.7897 4.9811c-1.285 0-1.9763-1.1146-1.9763-3.1832 0-2.2382 2.1915-5.3197 7.3865-10.39l7.3865-7.209 0.44026-12.025c0.24232-6.6135 0.002-12.025-0.53222-12.025-0.53469 0.00051-3.4932 2.5086-6.5745 5.5726-4.2032 4.1796-5.602 6.5261-5.602 9.396 0.00001 2.401-1.1446 4.9636-3.074 6.8821-1.9376 1.9268-4.5044 3.0568-6.9443 3.0568s-5.1699-1.2614-6.9443-3.0568c-1.847-1.8688-3.074-4.4583-3.074-7.2421 0.00001-3.5662 2.2562-5.5972 4.5904-7.2712 2.6981-1.9351 7.1914-2.3544 9.6954-2.3544 3.8466-0.00001 5.6171-1.0579 11.413-6.8218l6.8602-6.8218v-11.857c0-10.327-0.27385-11.857-2.1269-11.857-1.1702 0-4.7736 2.8019-8.0068 6.2264-4.1393 4.3843-6.8431 6.2264-9.1417 6.2264-2.6603 0-3.2657-0.58575-3.2657-3.1618 0-2.3273 2.9728-6.0911 11.271-14.272l11.271-11.112v-13.124c0-1.4038-0.0223-2.6788-0.0528-3.8934v-9.9642l0.0215-0.0117-0.0215-0.037v-2.0411h-2.3539v0.73938l-8.2592 4.7418c-1.3616 0.72119-2.8425 1.533-4.473 2.4692l-11.429 6.561-4.0425 15.262c-2.9759 11.236-4.7688 15.679-6.7956 16.842-2.2435 1.288-3.0548 1.0593-4.385-1.2317-1.1493-1.9795-0.89742-5.2289 0.85116-10.986 1.3658-4.4966 2.0037-9.0012 1.4186-10.009-0.92655-1.5959-2.3962-1.0657-11.39 4.0977l-10.325 5.9287-2.5124 9.3182c-2.1216 7.8736-2.1562 9.9262-0.23284 13.239 1.252 2.1564 3.1323 6.2372 2.7961 9.5283-0.29085 2.8472-0.93088 5.8053-4.0367 7.5884-2.4244 1.3919-5.2933 1.6291-7.8444 0.97287-2.4508-0.63042-4.9143-2.3507-6.1342-4.4519-1.22-2.1012-1.5193-4.8767-0.81007-7.5086 0.70617-2.6208 2.3664-4.8878 4.4574-6.0882 2.4993-1.4349 3.8424-3.813 5.3809-9.5225 1.1278-4.1856 1.8322-7.9877 1.5654-8.4484-0.26684-0.46065-5.0998 2.0397-10.738 5.5551l-10.251 6.3918-2.5848 9.9642c-1.8185 7.0092-3.4063 10.439-5.3555 11.558-1.8016 1.0343-3.1183 0.99567-3.7608-0.11091-0.54358-0.93621-0.11928-4.6882 0.94313-8.3375 1.0624-3.6494 1.7685-6.9165 1.5693-7.2596-0.19917-0.34307-2.5935 0.65851-5.3202 2.224-2.9609 1.6999-5.991 2.57-7.5235 2.1617-1.3131-0.34987-1.925-0.62894-2.1034-1.2258-0.43059-0.45211-0.36749-1.1186-0.0156-2.4244 0.41062-1.5239 2.6842-3.6976 5.6451-5.3975 2.7268-1.5655 4.7954-3.1262 4.5963-3.4693-0.19919-0.34307-3.3973-1.3687-7.1067-2.2785-3.7094-0.90975-7.1893-2.4202-7.7329-3.3564-0.64247-1.1066-0.0171-2.2598 1.7845-3.2942 1.9492-1.1191 5.7285-0.77308 12.742 1.1655l9.9713 2.7571 10.691-5.6329c5.8808-3.0981 10.474-6.0118 10.206-6.4716-0.26779-0.46022-3.9307-1.7543-8.1398-2.8758-5.7416-1.5298-8.4836-1.5594-10.983-0.12452-2.091 1.2005-4.8958 1.4942-7.5313 0.79191-2.6468-0.70522-4.9143-2.3507-6.1342-4.4519-1.22-2.1012-1.4864-5.0829-0.81008-7.5086 0.70406-2.525 2.346-4.8753 4.7704-6.2672 3.1058-1.7831 6.002-0.85599 8.6271 0.31716 3.0344 1.356 5.6473 5.0156 6.8993 7.172 1.9233 3.3126 3.7284 4.3093 11.646 6.419l9.3726 2.4964 10.325-5.9287c8.9937-5.1634 10.19-6.1638 9.263-7.7596-0.58512-1.0078-4.8264-2.7104-9.4254-3.7825-5.8879-1.3726-8.8436-2.7798-9.9928-4.7593-1.3302-2.291-1.1243-3.1055 1.1192-4.3935 2.0268-1.1636 6.7925-0.48509 18.066 2.5703l15.313 4.1503 11.429-6.563c1.2226-0.70189 2.321-1.3589 3.3636-1.9924l10.498-6.026-0.47352-0.81527 0.29741-0.51173-0.89029-0.51173-0.10957-0.18874-0.10958 0.0623-8.3492-4.7924c-1.3088-0.81195-2.7564-1.6809-4.3869-2.617l-11.429-6.5611-15.313 4.1483c-11.274 3.0554-16.037 3.7339-18.064 2.5703-2.2435-1.288-2.4513-2.1025-1.1212-4.3935 1.1493-1.9795 4.105-3.3867 9.9928-4.7593 4.599-1.0721 8.8422-2.7728 9.4274-3.7806 0.92656-1.5958-0.27126-2.5981-9.265-7.7616l-10.325-5.9287-9.3706 2.4964c-7.9178 2.1097-9.7249 3.1064-11.648 6.419-1.252 2.1564-3.865 5.816-6.8993 7.172-2.6251 1.1731-5.5213 2.1003-8.6271 0.31716-2.4244-1.3919-4.0664-3.7422-4.7704-6.2672-0.67637-2.4258-0.40989-5.4074 0.81007-7.5086s3.4875-3.7466 6.1342-4.4519c2.6355-0.70223 5.4403-0.40662 7.5313 0.79386 2.4994 1.4349 5.2413 1.4034 10.983-0.12647 4.2091-1.1215 7.874-2.4156 8.1418-2.8758 0.26776-0.46012-4.3253-3.3735-10.206-6.4716l-10.693-5.6329-9.9713 2.7571c-7.0135 1.9386-10.793 2.2846-12.742 1.1655-1.8016-1.0343-2.427-2.1856-1.7845-3.2922 0.54355-0.93622 4.0234-2.4486 7.7328-3.3584 3.7094-0.90976 6.9076-1.9334 7.1067-2.2765 0.19919-0.34306-1.8695-1.9057-4.5963-3.4712-2.9609-1.6999-5.2325-3.8736-5.6431-5.3975-0.35185-1.3058-0.41494-1.9723 0.0156-2.4244 0.17844-0.59687 0.79033-0.87593 2.1034-1.2258 1.5325-0.40831 4.5606 0.46376 7.5215 2.1637 2.7268 1.5655 5.1211 2.5651 5.3202 2.222 0.19918-0.34307-0.50687-3.6102-1.5693-7.2596s-1.4867-7.4013-0.94313-8.3375c0.64247-1.1066 1.9592-1.1433 3.7608-0.10897 1.9492 1.1191 3.537 4.5466 5.3555 11.556l2.5848 9.9661 10.253 6.3898c5.6385 3.5154 10.472 6.0154 10.738 5.5551 0.2669-0.46073-0.43948-4.2629-1.5673-8.4484-1.5385-5.7095-2.8816-8.0876-5.3809-9.5225-2.091-1.2005-3.7512-3.4675-4.4574-6.0882-0.70921-2.632-0.40989-5.4074 0.81007-7.5086s3.6835-3.8215 6.1342-4.4519c2.5511-0.65619 5.42-0.41899 7.8444 0.97289 3.1058 1.7831 3.7458 4.7431 4.0367 7.5904 0.33622 3.2911-1.5441 7.37-2.7961 9.5264-1.9233 3.3126-1.8868 5.3653 0.23481 13.239l2.5104 9.3201 10.325 5.9287c8.9937 5.1634 10.465 5.6916 11.392 4.0958 0.58511-1.0078-0.0548-5.5123-1.4206-10.009-1.7486-5.7568-2.0004-9.0062-0.85117-10.986 1.3302-2.291 2.1434-2.5197 4.3869-1.2317 2.0268 1.1636 3.8178 5.606 6.7936 16.842l4.0425 15.262 11.429 6.563c1.2226 0.70189 2.3453 1.3199 3.4183 1.901l9.441 5.4189v0.57983h1.0097l0.047 0.0273 0.0156-0.0273h1.2816v-10.861c0.0527-1.5331 0.0861-3.214 0.0861-5.0862v-13.124l-11.271-11.112c-8.2978-8.181-11.271-11.945-11.271-14.272 0-2.5761 0.60545-3.1618 3.2657-3.1618 2.2986 0 5.0024 1.8422 9.1417 6.2264 3.2332 3.4245 6.8366 6.2264 8.0068 6.2264 1.8531 0 2.1269-1.5305 2.1269-11.857v-11.857l-6.8602-6.8218c-5.7963-5.7638-7.5668-6.8218-11.413-6.8218-2.504 0-6.9973-0.41925-9.6954-2.3544-2.3342-1.6741-4.5904-3.7051-4.5904-7.2712 0-2.7838 1.2269-5.3732 3.074-7.2421 1.7744-1.7954 4.5044-3.0568 6.9443-3.0568s5.0067 1.13 6.9443 3.0568c1.9293 1.9185 3.074 4.4811 3.074 6.8821 0 2.8699 1.3988 5.2164 5.602 9.396 3.0813 3.064 6.0398 5.5721 6.5745 5.5726 0.5346 0.00053 0.77454-5.4112 0.53222-12.025l-0.44026-12.025-7.3865-7.209c-5.195-5.0706-7.3865-8.1521-7.3865-10.39 0-2.0686 0.69131-3.1832 1.9763-3.1832 1.0871 0 4.1427 2.2415 6.7897 4.9811s5.1391 4.9811 5.5374 4.9811c0.39838 0 0.72399-2.5623 0.72399-5.6933 0-3.3998 0.75659-6.4437 1.8784-7.5592 0.84112-0.8364 1.3659-1.2375 1.8921-1.2278z" />
      <path
         id="path4444"
         d="m370.14 660.18c-1.259-1.3834-1.9993-4.475-2.0279-8.4687-0.0368-5.1313-0.38774-5.1162-6.1844 0.26523-4.143 3.8462-5.5068 4.8027-6.6535 4.6666-0.99643-0.11825-1.6014-0.64866-1.9566-1.7154-0.86458-2.5968 1.2792-5.9125 8.3679-12.942l6.4446-6.3908-0.1522-11.903-0.15219-11.903-4.3846 4.0725c-4.9126 4.5629-6.8515 7.4966-7.4062 11.207-1.3881 9.2836-10.903 12.998-17.216 6.721-4.2569-4.2331-4.3581-9.3993-0.25868-13.206 2.7435-2.5473 4.8928-3.3337 10.678-3.907 2.1684-0.21489 4.6878-0.76831 5.5985-1.2298 0.91072-0.46152 4.269-3.3673 7.4628-6.4573l5.807-5.6182v-9.9247c0-5.4586-0.15841-10.712-0.35202-11.675-0.61471-3.0564-2.3295-2.342-8.7695 3.6529-7.1725 6.677-10.343 8.2059-12.523 6.0385-1.1396-1.1333-1.1258-3.1879 0.0366-5.4486 0.50693-0.98586 5.576-6.4691 11.265-12.185l10.343-10.393v-14.391c0-7.9421-0.22273-14.391-0.497-14.391-0.27335 0-6.1517 3.2259-13.063 7.1688l-12.566 7.1688-3.3062 12.294c-4.5006 16.736-6.268 20.415-9.8057 20.415-3.2586 0-3.809-4.762-1.5669-13.557 0.79062-3.1015 1.3609-6.5497 1.2673-7.6626-0.15492-1.8419-0.3139-2.0134-1.7716-1.9109-1.3107 0.0921-17.557 8.7796-19.129 10.229-0.82731 0.76285-4.3295 14.818-4.3313 17.383-0.001 1.7033 0.58121 3.7006 1.7964 6.1609 1.5234 3.0844 1.803 4.286 1.8301 7.8658 0.0361 4.7712-0.77671 6.5678-3.8005 8.4012-2.1918 1.3289-7.5789 1.4833-9.9111 0.284-2.4875-1.2791-4.9715-4.47-5.3879-6.9212-0.66458-3.9116 0.5379-6.7249 4.4786-10.478 3.1793-3.0279 3.6806-3.821 4.9568-7.8411 1.5059-4.7438 2.4629-9.7933 1.856-9.7933-0.81542 0-6.6475 3.2084-13.31 7.3223l-7.0694 4.365-1.0213 4.3778c-1.9502 8.36-4.1616 14.428-5.8098 15.943-5.0164 4.6094-6.4666 1.1911-3.8292-9.0257 0.75278-2.9161 1.2892-5.3811 1.1921-5.4776s-2.2888 0.84014-4.8704 2.0816c-6.6148 3.181-10.104 2.9977-10.104-0.53063 0-2.1265 1.2434-3.5522 5.6244-6.4483 2.1607-1.4284 4.0692-2.8234 4.2411-3.1 0.17193-0.27663-1.1537-0.90958-2.9459-1.4065-7.9586-2.2069-11.059-3.5428-11.625-5.009-0.42261-1.0951 1.3676-2.9401 3.3276-3.4293 2.2587-0.56373 6.6166 0.13006 14.41 2.294l7.1179 1.9765 6.9629-3.6926c8.5105-4.5134 13.44-7.4599 13.44-8.0337 0-0.23719-2.3445-1.1506-5.2099-2.0298-6.1816-1.8968-10.811-2.0774-14.503-0.56585-6.9803 2.8574-14.664-2.6899-13.854-10.002 0.58909-5.3199 5.4026-9.8036 9.7684-9.099 4.0434 0.65249 6.8288 2.5647 10.167 6.98 1.7664 2.3362 3.9792 4.6928 4.9172 5.2368 0.938 0.54403 5.1279 1.9105 9.3109 3.0366l7.6054 2.0474 8.431-4.8909c8.7273-5.0628 10.966-6.6813 10.966-7.9293 0-1.0642-3.5407-2.688-9.0117-4.1327-5.8025-1.5322-8.523-2.8277-10.085-4.8023-2.4512-3.0988-0.68567-5.2609 4.296-5.2609 2.6159 0 14.05 2.6454 26.227 6.0678l3.823 1.0745 12.226-7.0951c6.7243-3.9023 12.286-7.4626 12.359-7.9118 0.0867-0.53129-4.2057-3.3101-12.283-7.952l-12.416-7.1353-11.602 3.0963c-15.2 4.0566-19.216 4.6897-21.844 3.4435-1.402-0.6648-1.966-1.3009-1.966-2.2169 0-3.0535 2.963-5.0798 10.368-7.0907 5.7473-1.5606 9.908-3.3511 9.908-4.2638 0-0.39675-0.73286-1.3346-1.6286-2.0841-2.4394-2.0411-17.197-10.499-18.319-10.499-1.4892 0-14.88 3.844-16.762 4.8116-0.9126 0.46928-2.4675 2.0176-3.4555 3.4408-4.5089 6.4954-7.4192 8.55-12.11 8.55-9.5352 0-12.588-13.828-4.0484-18.337 2.9516-1.5584 7.0079-1.5226 11.264 0.0992 2.1658 0.82523 3.0257 0.87335 5.914 0.33092 3.7594-0.70602 10.449-2.7269 11.162-3.3718 0.58174-0.52629-4.7042-3.8313-13.428-8.3959l-6.7719-3.5433-7.5905 2.0112c-4.1748 1.1061-8.6624 2.1744-9.9726 2.3739-4.1559 0.63289-8.0663-1.4671-7.1506-3.8401 0.29247-0.75787 3.9666-2.5942 6.7165-3.357 6.2257-1.7268 7.6037-2.205 7.6037-2.6389 0-0.27681-1.9234-1.7939-4.2743-3.3714-5.8118-3.8998-7.3742-7.6114-3.7767-8.9716 1.8373-0.69464 3.6216-0.23599 8.4502 2.1722 2.2332 1.1137 4.2522 1.8341 4.4867 1.6009 0.23454-0.23323-0.1415-2.6169-0.83566-5.2971-1.8538-7.158-1.7934-10.754 0.18067-10.754 3.5108 0 5.9966 4.3258 8.7701 15.262l1.811 7.1407 7.6604 4.6919c8.5023 5.2075 12.411 7.2944 12.847 6.86 0.4085-0.40622-1.4413-8.4558-2.7397-11.922-0.79346-2.1181-1.8934-3.5794-4.1144-5.4663-3.6459-3.0973-5.1062-6.2853-4.6644-10.183 0.70443-6.2147 7.5579-10.128 13.671-7.8068 6.0373 2.2928 7.4934 9.1189 3.5736 16.754-2.2859 4.4524-2.2417 7.355 0.2527 16.594l1.8901 7.001 6.1447 3.545c8.3715 4.8296 14.126 7.5569 14.917 7.0704 0.87665-0.53876 0.40092-4.33-1.4813-11.805-1.6153-6.415-1.5414-8.7443 0.34119-10.754 1.5119-1.6137 2.554-1.5363 4.4297 0.32883 2.0367 2.0253 3.4199 5.8133 7.2769 19.929l3.1901 11.675 11.828 6.7552c6.5054 3.7154 11.912 6.9679 12.016 7.228 0.10327 0.26002 0.67354 0.47277 1.2673 0.47277 1.0358 0 1.0795-0.58163 1.0795-14.369v-14.369l-10.087-10.198c-5.5479-5.6087-10.617-11.231-11.265-12.493-2.0009-3.9002-1.3545-6.2604 1.7146-6.2604 2.7564 0 4.3562 1.0156 10.068 6.3914 5.7724 5.4332 7.5114 6.5199 8.6407 5.3992 0.4309-0.42762 0.70592-4.3171 0.82255-11.633l0.17521-10.991-5.5259-5.5337c-7.1684-7.1784-8.1856-7.7829-13.98-8.3081-5.2065-0.47189-7.7184-1.4393-10.33-3.9784-3.6435-3.5422-3.615-8.4282 0.0735-12.606 3.9767-4.5039 9.7777-4.7222 14.399-0.54188 1.8394 1.6638 2.7268 3.548 3.2037 6.8029 0.22509 1.5362 0.74236 3.4464 1.1495 4.2449 0.79412 1.5576 9.7424 10.59 10.491 10.59 0.24749 0 0.44999-5.2098 0.44999-11.577v-11.577l-6.6442-6.7653c-6.1273-6.2389-8.5631-9.5638-8.5631-11.689 0-0.45839 0.45867-1.3967 1.0193-2.0852 0.99071-1.2166 1.071-1.2251 2.8626-0.30382 1.0138 0.52134 3.8394 2.8442 6.279 5.162 5.0357 4.7842 4.7782 4.899 5.2263-2.3303 0.27773-4.4809 1.0869-6.5866 2.9022-7.5527 1.0007-0.53255 1.5133-0.52237 2.4323 0.0483 1.7285 1.0734 2.4832 3.1296 2.7544 7.5044 0.44806 7.2293 0.19057 7.1145 5.2263 2.3303 2.4396-2.3177 5.2651-4.6406 6.279-5.162 1.7917-0.92132 1.8719-0.9128 2.8626 0.30382 0.5606 0.68844 1.0193 1.6268 1.0193 2.0852 0 2.1248-2.4358 5.4497-8.5631 11.689l-6.6442 6.7653v11.577c0 6.3676 0.2025 11.577 0.44998 11.577 0.74898 0 9.6973-9.0323 10.491-10.59 0.40713-0.79851 0.92439-2.7087 1.1495-4.2449 0.47695-3.2549 1.3643-5.1391 3.2037-6.8029 4.6225-4.1811 10.423-3.9621 14.401 0.54381 3.6184 4.0981 3.6471 9.1278 0.0718 12.604-2.6116 2.539-5.1236 3.5065-10.33 3.9784-5.7947 0.5252-6.8119 1.1297-13.98 8.3081l-5.5259 5.5337 0.17521 10.991c0.11662 7.3159 0.39164 11.205 0.82255 11.633 1.1293 1.1206 2.8683 0.034 8.6407-5.3992 5.7113-5.3758 7.3111-6.3914 10.068-6.3914 3.0692 0 3.7156 2.3602 1.7146 6.2604-0.64763 1.2624-5.7167 6.8842-11.265 12.493l-10.087 10.198v14.369c0 10.042 0.18583 14.369 0.6171 14.369 0.33941 0 1.2899-0.46578 2.1121-1.0351 0.82227-0.56929 6.4374-3.8282 12.478-7.2421l10.983-6.207 3.2522-12.221c3.5485-13.334 5.8974-18.977 8.4678-20.342 1.5101-0.80204 1.6441-0.76889 2.957 0.73134 1.8161 2.0753 1.8081 5.2615-0.0322 12.815-1.5026 6.1677-1.759 9.1357-0.83809 9.7017 0.79399 0.48797 5.444-1.7163 13.605-6.4492 3.82-2.2154 7.026-4.104 7.1243-4.1969 0.0983-0.0928 1.0478-3.4074 2.1099-7.3655 2.4464-9.1168 2.4605-11.289 0.10503-16.235-1.5361-3.2253-1.8305-4.4899-1.8305-7.8631 0-4.7742 0.97069-6.482 4.8204-8.4807 4.8105-2.4975 11.294-0.31203 13.516 4.5563 2.1143 4.6308 1.1256 8.3081-3.4009 12.65-3.8676 3.7097-4.5596 4.975-6.1381 11.223-1.1981 4.7425-1.4616 6.7544-0.88466 6.7544 0.67488 0 4.2817-2.0217 12.123-6.7951l8.2083-4.9968 1.012-4.3255c1.4885-6.3625 3.6561-13.042 4.8808-15.041 1.155-1.8852 3.8876-3.3386 5.279-2.8076 1.2691 0.48428 1.0702 4.7612-0.50527 10.863-0.83293 3.226-1.1102 5.1808-0.73477 5.1808 0.33159 0 2.4682-0.91649 4.748-2.0367 3.9682-1.9498 7.5559-2.5989 9.1044-1.6472 0.34855 0.21421 0.63373 1.2373 0.63373 2.2736 0 2.2715-1.7164 4.1426-6.6915 7.2943-1.8957 1.2009-3.4467 2.345-3.4467 2.5425 0 0.19744 2.091 0.92591 4.6467 1.6188 5.9853 1.6228 9.8271 3.2675 10.261 4.3931 0.5026 1.3024-1.9319 3.4601-4.343 3.8492-1.4314 0.23098-4.8564-0.37744-11.386-2.0227l-9.3392-2.353-7.7334 4.1464c-9.8877 5.3014-12.77 7.127-12.163 7.7049 0.76776 0.73166 7.3675 2.7404 11.163 3.3977 2.9012 0.50239 3.8542 0.44602 5.9636-0.35277 5.4534-2.0651 9.8035-1.6064 13.141 1.3856 3.4139 3.0608 4.011 7.1124 1.7214 11.681-4.1773 8.3359-13.588 6.7521-19.852-3.341-0.70728-1.1396-2.0969-2.5649-3.0881-3.1673-1.705-1.0362-15.438-5.1221-17.216-5.1221-0.86268 0-11.661 6.0485-16.831 9.4276-1.8422 1.204-2.957 2.3326-2.957 2.9934 0 1.2884 2.9896 2.6559 9.6677 4.4222 6.4538 1.707 8.7619 2.9542 9.9145 5.3577 0.95497 1.9914 0.95366 1.9985-0.61389 3.3394-1.049 0.89727-2.2622 1.342-3.6516 1.3386-2.5532-0.006-11.179-1.9423-22.223-4.9878l-8.3143-2.2928-12.389 7.1434c-7.9241 4.5688-12.337 7.4298-12.244 7.9381 0.08 0.4371 5.658 3.9948 12.395 7.9061l12.25 7.1114 3.8024-1.0688c12.152-3.4157 23.592-6.0622 26.207-6.0622 3.1282 0 5.4757 1.1061 5.4757 2.5799 0 1.7485-1.7207 4.0281-3.7708 4.9954-1.1719 0.55298-4.1941 1.57-6.7161 2.2599-5.8746 1.6072-9.7895 3.3339-9.7895 4.3177 0 1.2929 2.1628 2.8657 10.953 7.9646l8.418 4.8834 6.7892-1.7703c9.7754-2.5489 11.907-3.7081 14.837-8.0705 2.7387-4.077 5.4089-6.1471 9.2282-7.1541 2.3228-0.61242 2.9117-0.56841 5.0151 0.37478 6.1199 2.7442 8.0654 11.718 3.486 16.08-3.4622 3.2976-7.9394 4.0184-12.594 2.0273-2.1913-0.9374-3.4325-1.1218-5.7368-0.85234-3.4777 0.40671-12.797 3.157-12.797 3.7766 0 0.57344 4.9286 3.5198 13.425 8.0259l6.9482 3.6848 8.5714-2.2387c4.7143-1.2313 9.5206-2.2387 10.681-2.2387 2.4483 0 5.137 1.226 5.6598 2.5806 0.77576 2.0103-1.7544 3.3392-11.64 6.1135-1.7852 0.50101-3.0953 1.1532-2.9113 1.4492 0.18399 0.29605 1.9604 1.5594 3.9476 2.8073 4.1944 2.6342 5.8706 4.5231 5.8706 6.6157 0 3.5796-3.4537 3.7778-10.104 0.57972-2.5816-1.2414-4.7561-2.1866-4.8322-2.1003s0.45502 2.5512 1.1804 5.4776c2.1486 8.6682 1.6641 11.926-1.5904 10.695-3.0048-1.136-4.796-4.8537-7.5395-15.648l-1.6147-6.3533-7.0404-4.3458c-7.4135-4.5761-12.334-7.3112-13.155-7.3112-0.72065 0 0.10531 4.6771 1.7294 9.7933 1.2762 4.0202 1.7775 4.8132 4.9568 7.8411 2.6656 2.5386 3.7013 3.9771 4.2037 5.8382 1.8357 6.8-2.6357 12.375-9.9215 12.371-4.3157-0.003-6.6475-1.385-8.1914-4.8557-1.5436-3.4701-1.1944-7.2535 1.1243-12.181 1.2087-2.5684 1.7925-4.6569 1.7913-6.4078-0.002-2.6797-3.4488-16.64-4.3043-17.432-1.5788-1.4623-17.83-10.163-19.156-10.256-1.4267-0.10031-1.6208 0.0883-1.7795 1.7297-0.098 1.0132 0.4723 4.4254 1.2673 7.5826 1.656 6.5767 1.8452 10.761 0.56864 12.574-1.1412 1.6201-3.3251 1.598-4.9828-0.0505-2.0753-2.0637-3.1782-5.4227-9.7665-29.746-0.3814-1.4081-2.0581-2.5581-11.981-8.2172-6.3457-3.619-11.844-6.8518-12.218-7.184-0.37415-0.33223-1.0712-0.60406-1.5489-0.60406-0.76012 0-0.86863 1.7962-0.86863 14.38v14.38l10.333 10.404c5.6831 5.7221 10.752 11.21 11.265 12.196 1.1719 2.2546 1.1895 4.3121 0.0466 5.4486-2.1796 2.1674-5.3502 0.63846-12.523-6.0385-6.4399-5.995-8.1547-6.7093-8.7694-3.6529-0.19362 0.96263-0.35203 6.2082-0.35203 11.657v9.9066l5.4915 5.3396c3.0203 2.9368 6.2189 5.8051 7.1079 6.3741 0.97033 0.62106 3.7461 1.3059 6.9448 1.7135 5.809 0.74014 9.4011 2.4183 11.661 5.4478 1.7526 2.3495 1.5873 6.8493-0.35903 9.774-5.6132 8.4347-17.232 5.3923-18.774-4.9158-0.55473-3.7099-2.4936-6.6436-7.4062-11.207l-4.3846-4.0725-0.15227 11.93-0.15228 11.93 6.4643 6.4043c7.0953 7.0295 9.2092 10.29 8.3484 12.875-0.35305 1.0604-0.96114 1.5974-1.9407 1.7139-1.1223 0.13347-2.5393-0.8501-6.6435-4.6114-2.8693-2.6296-5.4038-4.6662-5.6322-4.5258-0.2284 0.14036-0.54719 2.556-0.70842 5.3681-0.22284 3.8864-0.55914 5.4687-1.402 6.5965-1.3958 1.8676-3.5414 2.1803-4.8787 0.71096z"
         style="fill:#eff8f8" />
    </g>
  </g>
</svg>
